<svg xmlns="http://www.w3.org/2000/svg" xmlns:xlink="http://www.w3.org/1999/xlink" width="200" zoomAndPan="magnify" viewBox="0 0 375 374.999991" height="150" preserveAspectRatio="xMidYMid meet" version="1.0"><path fill="#caddff" d="M 269.84375 314.660156 C 351.816406 263.449219 349.757812 221.996094 350.261719 217.804688 C 362.914062 111.886719 331.425781 54.449219 274.191406 28.929688 C 247.066406 16.835938 204.1875 10.574219 173.617188 30.941406 C 145.070312 49.964844 157.441406 72.09375 125.945312 110.082031 C 89.675781 153.832031 59.15625 148.375 34.835938 186.585938 C 18.773438 211.820312 27.203125 241.914062 29.234375 250.675781 C 44.132812 314.90625 122.339844 336.984375 131.113281 339.316406 C 200.742188 357.828125 258.058594 322.023438 269.84375 314.660156 " fill-opacity="1" fill-rule="nonzero"/><path fill="#000000" d="M 247.863281 338.789062 C 247.589844 338.789062 247.34375 338.597656 247.285156 338.320312 C 247.214844 338 247.417969 337.683594 247.738281 337.617188 C 273.757812 331.957031 297.921875 318.765625 317.609375 299.453125 C 317.84375 299.226562 318.222656 299.230469 318.449219 299.464844 C 318.679688 299.695312 318.675781 300.070312 318.441406 300.300781 C 298.59375 319.765625 274.230469 333.070312 247.988281 338.773438 C 247.945312 338.785156 247.90625 338.789062 247.863281 338.789062 " fill-opacity="1" fill-rule="nonzero"/><path fill="#000000" d="M 258.492188 328.195312 C 258.246094 328.195312 258.015625 328.039062 257.929688 327.792969 C 257.828125 327.484375 257.996094 327.144531 258.304688 327.042969 C 274.222656 321.726562 288.957031 313.402344 302.09375 302.3125 C 302.34375 302.101562 302.71875 302.132812 302.929688 302.382812 C 303.140625 302.632812 303.109375 303.007812 302.859375 303.21875 C 289.609375 314.40625 274.742188 322.800781 258.683594 328.164062 C 258.617188 328.1875 258.554688 328.195312 258.492188 328.195312 " fill-opacity="1" fill-rule="nonzero"/><path fill="#000000" d="M 307.519531 296.277344 C 307.269531 296.277344 307.023438 296.335938 306.792969 296.453125 C 306.40625 296.648438 306.125 296.980469 305.988281 297.390625 C 305.855469 297.800781 305.890625 298.234375 306.085938 298.621094 C 306.28125 299.003906 306.613281 299.289062 307.023438 299.421875 C 307.433594 299.558594 307.871094 299.523438 308.253906 299.328125 C 308.640625 299.132812 308.925781 298.800781 309.054688 298.390625 C 309.191406 297.980469 309.15625 297.542969 308.964844 297.160156 C 308.765625 296.773438 308.433594 296.488281 308.023438 296.355469 C 307.859375 296.300781 307.691406 296.277344 307.519531 296.277344 Z M 307.527344 300.691406 C 307.234375 300.691406 306.941406 300.644531 306.65625 300.550781 C 305.945312 300.320312 305.367188 299.824219 305.027344 299.15625 C 304.691406 298.492188 304.628906 297.734375 304.863281 297.023438 C 305.09375 296.3125 305.589844 295.734375 306.253906 295.394531 C 307.632812 294.695312 309.320312 295.246094 310.019531 296.621094 C 310.355469 297.289062 310.414062 298.046875 310.183594 298.757812 C 309.953125 299.46875 309.457031 300.046875 308.792969 300.382812 C 308.394531 300.589844 307.960938 300.691406 307.527344 300.691406 " fill-opacity="1" fill-rule="nonzero"/><path fill="#000000" d="M 317.539062 293.914062 L 323.191406 297.910156 C 323.566406 295.316406 323.800781 292.820312 323.914062 291.519531 Z M 323.632812 299.542969 C 323.511719 299.542969 323.390625 299.503906 323.289062 299.433594 L 315.941406 294.238281 C 315.761719 294.109375 315.667969 293.894531 315.695312 293.675781 C 315.722656 293.460938 315.867188 293.277344 316.074219 293.199219 L 324.371094 290.082031 C 324.558594 290.011719 324.769531 290.042969 324.933594 290.164062 C 325.09375 290.285156 325.183594 290.480469 325.171875 290.679688 C 325.167969 290.722656 324.867188 294.921875 324.21875 299.042969 C 324.1875 299.246094 324.050781 299.417969 323.863281 299.496094 C 323.789062 299.527344 323.710938 299.542969 323.632812 299.542969 " fill-opacity="1" fill-rule="nonzero"/><path fill="#99b9ff" d="M 234.621094 193.398438 L 175.757812 193.769531 C 175.378906 193.769531 175.25 194.125 175.25 194.464844 L 175.25 244.542969 C 175.25 249.335938 141.804688 261.792969 141.480469 261.160156 L 141.4375 266.457031 C 141.4375 267.445312 142.304688 268.320312 143.410156 268.320312 L 144.144531 268.320312 C 144.152344 268.320312 144.15625 268.320312 144.160156 268.320312 L 193.515625 268.320312 C 195.804688 268.320312 198.066406 267.808594 200.140625 266.941406 L 227.277344 255.515625 C 232.164062 253.460938 235.242188 249.042969 235.242188 244.222656 L 235.242188 194.09375 C 235.242188 193.753906 235.003906 193.398438 234.621094 193.398438 " fill-opacity="1" fill-rule="nonzero"/><path fill="#ffffff" d="M 169.289062 190.851562 L 169.289062 240.941406 C 169.289062 245.878906 166.113281 250.375 161.117188 252.507812 L 142.8125 260.320312 C 141.617188 260.832031 142.023438 262.433594 143.351562 262.433594 L 193.644531 262.433594 C 195.90625 262.433594 198.140625 261.988281 200.1875 261.125 L 220.46875 252.585938 C 225.5 250.46875 228.710938 245.953125 228.710938 240.992188 L 228.710938 190.851562 C 228.710938 190.648438 228.523438 190.480469 228.292969 190.480469 L 169.707031 190.480469 C 169.476562 190.480469 169.289062 190.648438 169.289062 190.851562 " fill-opacity="1" fill-rule="nonzero"/><path fill="#99b9ff" d="M 124.027344 33.488281 L 342.761719 32.855469 C 347.160156 32.855469 350.613281 36.605469 350.222656 40.964844 L 334.914062 212.535156 C 334.566406 216.378906 331.332031 219.324219 327.453125 219.324219 L 58.019531 219.285156 C 53.621094 219.285156 50.125 215.144531 50.511719 210.785156 L 65.828125 40.277344 C 66.171875 36.433594 69.285156 33.070312 73.164062 33.070312 L 124.027344 33.488281 " fill-opacity="1" fill-rule="nonzero"/><path fill="#ffffff" d="M 113.597656 33.492188 L 332.296875 33.492188 C 336.691406 33.492188 340.144531 37.265625 339.753906 41.648438 L 324.515625 212.910156 C 324.171875 216.773438 320.933594 219.734375 317.054688 219.734375 L 47.617188 219.734375 C 43.21875 219.734375 39.765625 215.960938 40.15625 211.578125 L 55.394531 40.316406 C 55.742188 36.453125 58.976562 33.492188 62.855469 33.492188 L 113.597656 33.492188 " fill-opacity="1" fill-rule="nonzero"/><path fill="#000000" d="M 47.160156 133.46875 C 47.144531 133.46875 47.125 133.46875 47.105469 133.464844 C 46.78125 133.4375 46.539062 133.148438 46.570312 132.820312 L 54.804688 40.265625 C 55.179688 36.066406 58.640625 32.898438 62.859375 32.898438 L 113.597656 32.898438 C 113.925781 32.898438 114.191406 33.164062 114.191406 33.492188 C 114.191406 33.816406 113.925781 34.082031 113.597656 34.082031 L 62.859375 34.082031 C 59.261719 34.082031 56.304688 36.785156 55.988281 40.367188 L 47.75 132.925781 C 47.722656 133.234375 47.464844 133.46875 47.160156 133.46875 " fill-opacity="1" fill-rule="nonzero"/><path fill="#000000" d="M 269.625 220.328125 L 147.882812 220.328125 C 147.554688 220.328125 147.289062 220.0625 147.289062 219.734375 C 147.289062 219.40625 147.554688 219.140625 147.882812 219.140625 L 269.625 219.140625 C 269.953125 219.140625 270.21875 219.40625 270.21875 219.734375 C 270.21875 220.0625 269.953125 220.328125 269.625 220.328125 " fill-opacity="1" fill-rule="nonzero"/><path fill="#000000" d="M 328.621094 167.386719 C 328.605469 167.386719 328.585938 167.386719 328.566406 167.382812 C 328.242188 167.355469 328 167.070312 328.03125 166.742188 L 339.167969 41.59375 C 339.335938 39.667969 338.6875 37.75 337.382812 36.324219 C 336.082031 34.898438 334.226562 34.085938 332.296875 34.085938 L 113.597656 34.085938 C 113.273438 34.085938 113.007812 33.816406 113.007812 33.492188 C 113.007812 33.164062 113.273438 32.898438 113.597656 32.898438 L 332.296875 32.898438 C 334.558594 32.898438 336.734375 33.855469 338.257812 35.523438 C 339.789062 37.191406 340.546875 39.445312 340.347656 41.695312 L 329.210938 166.84375 C 329.183594 167.15625 328.925781 167.386719 328.621094 167.386719 " fill-opacity="1" fill-rule="nonzero"/><path fill="#caddff" d="M 118.464844 40.464844 L 324.949219 40.464844 C 329.105469 40.464844 332.363281 43.949219 331.992188 47.992188 L 317.605469 206.070312 C 317.28125 209.636719 314.222656 212.371094 310.558594 212.371094 L 56.164062 212.371094 C 52.011719 212.371094 48.753906 208.886719 49.121094 204.84375 L 63.511719 46.765625 C 63.835938 43.199219 66.890625 40.464844 70.554688 40.464844 L 118.464844 40.464844 " fill-opacity="1" fill-rule="nonzero"/><path fill="#99b9ff" d="M 331.042969 58.535156 L 331.992188 48.070312 C 332.363281 44.023438 329.105469 40.519531 324.949219 40.519531 L 70.554688 40.519531 C 66.890625 40.519531 63.835938 43.277344 63.511719 46.84375 L 62.449219 58.535156 L 331.042969 58.535156 " fill-opacity="1" fill-rule="nonzero"/><path fill="#99b9ff" d="M 311.882812 141.101562 L 147 141.101562 L 153.71875 65.957031 L 318.605469 65.957031 L 311.882812 141.101562 " fill-opacity="1" fill-rule="nonzero"/><path fill="#99b9ff" d="M 305.660156 204.378906 L 140.777344 204.378906 L 145.929688 146.75 L 310.816406 146.75 L 305.660156 204.378906 " fill-opacity="1" fill-rule="nonzero"/><path fill="#99b9ff" d="M 137.703125 141.492188 L 64.546875 141.492188 L 71.492188 66.519531 L 144.648438 66.519531 L 137.703125 141.492188 " fill-opacity="1" fill-rule="nonzero"/><path fill="#99b9ff" d="M 135.828125 156.339844 L 62.667969 156.339844 L 63.296875 149.574219 L 136.453125 149.574219 L 135.828125 156.339844 " fill-opacity="1" fill-rule="nonzero"/><path fill="#99b9ff" d="M 134.878906 170.617188 L 61.722656 170.617188 L 62.347656 163.851562 L 135.507812 163.851562 L 134.878906 170.617188 " fill-opacity="1" fill-rule="nonzero"/><path fill="#99b9ff" d="M 133.960938 181.890625 L 60.800781 181.890625 L 61.429688 175.125 L 134.585938 175.125 L 133.960938 181.890625 " fill-opacity="1" fill-rule="nonzero"/><path fill="#99b9ff" d="M 133.0625 192.914062 L 59.90625 192.914062 L 60.53125 186.148438 L 133.691406 186.148438 L 133.0625 192.914062 " fill-opacity="1" fill-rule="nonzero"/><path fill="#99b9ff" d="M 132.144531 204.191406 L 58.984375 204.191406 L 59.613281 197.425781 L 132.769531 197.425781 L 132.144531 204.191406 " fill-opacity="1" fill-rule="nonzero"/><path fill="#99b9ff" d="M 285.277344 265.234375 L 44.324219 265.234375 L 66.933594 243.101562 L 310.335938 243.101562 L 289.613281 263.390625 C 288.394531 264.582031 286.859375 265.234375 285.277344 265.234375 " fill-opacity="1" fill-rule="nonzero"/><path fill="#ffffff" d="M 287.726562 273.140625 L 44.324219 273.140625 L 44.324219 264.839844 L 287.726562 264.839844 L 287.726562 273.140625 " fill-opacity="1" fill-rule="nonzero"/><path fill="#ffffff" d="M 287.410156 264.773438 L 310.335938 243.101562 L 310.335938 250.214844 L 287.410156 273.140625 L 287.410156 264.773438 " fill-opacity="1" fill-rule="nonzero"/><path fill="#000000" d="M 243.882812 304.378906 C 235.996094 276.746094 271.699219 274.390625 287.089844 292.21875 C 289.328125 294.808594 288.085938 298.839844 284.769531 299.671875 L 250.59375 308.253906 C 247.675781 308.988281 244.707031 307.269531 243.882812 304.378906 " fill-opacity="1" fill-rule="nonzero"/><path fill="#ffffff" d="M 266.179688 274.519531 C 263.828125 273.316406 260.355469 271.890625 254.226562 272.820312 C 247.46875 273.855469 245.957031 278.84375 235.363281 281.074219 C 217.140625 284.917969 226.113281 295.578125 226.113281 295.578125 L 240.285156 289.164062 C 241.203125 288.75 242.21875 288.585938 243.222656 288.699219 C 246.3125 289.039062 253.710938 289.589844 260.445312 288.066406 C 265.484375 286.929688 272.125 291.113281 275.699219 287.960938 C 277.777344 286.132812 271.183594 277.089844 266.179688 274.519531 " fill-opacity="1" fill-rule="nonzero"/><path fill="#000000" d="M 257.980469 273.113281 C 256.875 273.113281 255.664062 273.203125 254.316406 273.410156 C 251.339844 273.863281 249.40625 275.128906 247.171875 276.59375 C 244.429688 278.390625 241.324219 280.425781 235.484375 281.65625 C 229.414062 282.933594 225.820312 285.082031 224.796875 288.035156 C 223.796875 290.917969 225.597656 293.851562 226.300781 294.84375 L 240.042969 288.625 C 241.058594 288.167969 242.179688 287.988281 243.289062 288.109375 C 246.175781 288.425781 253.609375 289.003906 260.316406 287.492188 C 262.585938 286.976562 265.09375 287.472656 267.519531 287.953125 C 270.585938 288.558594 273.476562 289.132812 275.308594 287.519531 C 275.519531 287.332031 275.519531 286.929688 275.480469 286.625 C 275.121094 283.75 270.019531 277.15625 265.910156 275.046875 C 263.976562 274.054688 261.5625 273.113281 257.980469 273.113281 Z M 226.113281 296.171875 C 225.945312 296.171875 225.777344 296.097656 225.660156 295.960938 C 225.519531 295.792969 222.238281 291.824219 223.675781 287.65625 C 224.835938 284.277344 228.730469 281.867188 235.242188 280.496094 C 240.859375 279.3125 243.867188 277.339844 246.523438 275.601562 C 248.773438 274.125 250.902344 272.730469 254.136719 272.238281 C 260.179688 271.316406 263.75 272.609375 266.449219 273.992188 C 270.683594 276.164062 276.214844 282.933594 276.660156 286.476562 C 276.792969 287.542969 276.425781 288.117188 276.09375 288.40625 C 273.824219 290.40625 270.503906 289.75 267.292969 289.117188 C 264.984375 288.660156 262.601562 288.191406 260.574219 288.648438 C 253.699219 290.199219 246.101562 289.609375 243.15625 289.285156 C 242.261719 289.1875 241.351562 289.332031 240.53125 289.707031 L 226.359375 296.121094 C 226.28125 296.15625 226.195312 296.171875 226.113281 296.171875 " fill-opacity="1" fill-rule="nonzero"/><path fill="#215bff" d="M 51.261719 233.34375 C 49.1875 227.929688 53.746094 215.582031 59.621094 215.269531 C 85.027344 213.921875 126.425781 212.691406 182.90625 235.707031 C 185.039062 236.574219 186.664062 238.566406 187.347656 241.136719 L 187.75 242.644531 C 188.394531 245.058594 187.960938 248.847656 186.839844 251.941406 C 185.730469 255 183.160156 257.375 179.925781 258.007812 C 179.125 258.160156 178.285156 258.214844 177.464844 258.082031 C 164.777344 256.039062 126.097656 247.390625 98.136719 265.515625 C 73.585938 281.429688 57.761719 250.339844 51.261719 233.34375 " fill-opacity="1" fill-rule="nonzero"/><path fill="#215bff" d="M 235.648438 280.242188 C 233.660156 278.214844 230.648438 277.53125 227.949219 278.464844 C 214.90625 282.980469 172.414062 296.863281 165.171875 288.761719 C 161.039062 284.136719 151.464844 270.359375 141.066406 257.863281 C 134.339844 249.773438 127.261719 242.222656 121.097656 238.039062 C 102.726562 225.570312 53.320312 229.058594 53.320312 229.058594 C 53.320312 229.058594 95.117188 322.046875 133.492188 332.722656 C 140.09375 334.558594 145.832031 335.644531 150.921875 336.15625 C 170.097656 338.085938 180.105469 331.824219 192.726562 326.453125 C 211.566406 318.433594 240.558594 298.464844 240.550781 291.386719 C 240.546875 286.390625 238 282.640625 235.648438 280.242188 " fill-opacity="1" fill-rule="nonzero"/><path fill="#215bff" d="M 104.011719 337.195312 C 111.566406 339.273438 136.460938 344.246094 167.679688 345.0625 C 141.636719 330.902344 134.617188 304.664062 134.617188 304.664062 C 156.585938 302.03125 134.472656 260.53125 125.886719 245.175781 C 121.125 236.664062 108.132812 229.628906 99.335938 225.214844 C 80.183594 215.601562 47.214844 209.042969 34.539062 222.503906 C 28.992188 228.394531 27.933594 233.683594 27.925781 242.933594 C 27.925781 244.617188 28.105469 246.304688 28.441406 247.957031 C 42.421875 316.195312 77.410156 329.886719 104.011719 337.195312 " fill-opacity="1" fill-rule="nonzero"/><path fill="#caddff" d="M 147.207031 265.117188 C 147.03125 265.117188 146.855469 265.042969 146.742188 264.890625 C 138.242188 254.144531 129.339844 245.6875 120.277344 239.765625 C 115.222656 236.460938 108.832031 233.738281 102.285156 232.097656 C 101.96875 232.019531 101.773438 231.695312 101.855469 231.378906 C 101.933594 231.058594 102.253906 230.867188 102.574219 230.949219 C 109.246094 232.621094 115.761719 235.398438 120.925781 238.769531 C 130.097656 244.765625 139.09375 253.308594 147.667969 264.160156 C 147.875 264.414062 147.828125 264.785156 147.574219 264.992188 C 147.464844 265.078125 147.335938 265.117188 147.207031 265.117188 " fill-opacity="1" fill-rule="nonzero"/><path fill="#caddff" d="M 159.433594 338.910156 C 159.414062 338.910156 159.390625 338.910156 159.371094 338.90625 C 153.316406 338.246094 148.15625 337.15625 142.113281 335.273438 C 125.265625 330.019531 99.476562 300.632812 86.867188 277.550781 C 86.710938 277.261719 86.816406 276.902344 87.105469 276.746094 C 87.390625 276.589844 87.75 276.695312 87.910156 276.980469 C 100.40625 299.867188 125.886719 328.972656 142.464844 334.140625 C 148.429688 336 153.523438 337.074219 159.496094 337.730469 C 159.824219 337.765625 160.058594 338.054688 160.023438 338.382812 C 159.988281 338.683594 159.730469 338.910156 159.433594 338.910156 " fill-opacity="1" fill-rule="nonzero"/><path fill="#ffffff" d="M 213.019531 258.769531 C 214.25 258.878906 215.714844 258.96875 217.984375 258.386719 L 235.550781 253.539062 C 237.078125 253.144531 237.976562 251.585938 237.539062 250.089844 C 237.539062 250.089844 236.914062 247.664062 234.199219 248.171875 C 233.117188 248.378906 226.960938 250.253906 226.234375 250.253906 C 225.0625 250.257812 224.472656 249.429688 224.835938 248.328125 C 225.023438 247.765625 225.175781 247.246094 225.296875 246.796875 C 225.585938 245.71875 226.441406 244.882812 227.53125 244.585938 C 229.742188 243.996094 236.351562 242.636719 237.285156 242.203125 C 238.671875 241.5625 240.722656 240.835938 241.390625 239.398438 L 241.558594 239.027344 C 242.234375 237.53125 241.042969 235.871094 239.390625 236.011719 L 223.40625 237.492188 C 221.355469 237.664062 219.429688 238.535156 217.949219 239.953125 L 210.3125 247.28125 C 208.589844 248.933594 206.058594 249.457031 203.816406 248.628906 L 184.390625 240.207031 C 178.628906 238.046875 175.394531 248.914062 175.394531 248.914062 C 174.867188 252.234375 177.28125 255.351562 180.507812 255.816406 L 213.019531 258.769531 " fill-opacity="1" fill-rule="nonzero"/><path fill="#000000" d="M 213.074219 258.179688 C 214.382812 258.292969 215.730469 258.351562 217.835938 257.8125 L 235.394531 252.96875 C 235.992188 252.816406 236.476562 252.445312 236.773438 251.921875 C 237.066406 251.410156 237.132812 250.820312 236.96875 250.253906 C 236.910156 250.046875 236.394531 248.363281 234.308594 248.757812 C 233.886719 248.835938 232.558594 249.210938 231.148438 249.605469 C 228.042969 250.480469 226.671875 250.847656 226.238281 250.847656 C 226.234375 250.847656 226.230469 250.847656 226.226562 250.847656 C 225.472656 250.847656 224.855469 250.570312 224.484375 250.054688 C 224.109375 249.542969 224.035156 248.863281 224.273438 248.140625 C 224.4375 247.648438 224.589844 247.144531 224.722656 246.644531 C 225.066406 245.371094 226.082031 244.363281 227.378906 244.015625 C 228.253906 243.78125 229.789062 243.429688 231.417969 243.0625 C 233.691406 242.546875 236.523438 241.902344 237.035156 241.667969 C 237.230469 241.574219 237.441406 241.484375 237.65625 241.386719 C 238.867188 240.851562 240.375 240.183594 240.851562 239.152344 L 241.019531 238.78125 C 241.246094 238.28125 241.191406 237.710938 240.871094 237.261719 C 240.546875 236.800781 240.011719 236.558594 239.441406 236.601562 L 223.460938 238.078125 C 221.546875 238.242188 219.738281 239.058594 218.363281 240.378906 L 210.722656 247.707031 C 208.847656 249.507812 206.054688 250.089844 203.609375 249.183594 L 184.152344 240.75 C 183.191406 240.390625 182.253906 240.4375 181.320312 240.902344 C 178.066406 242.515625 176.136719 248.519531 175.976562 249.046875 C 175.761719 250.449219 176.121094 251.867188 176.988281 253.039062 C 177.863281 254.230469 179.175781 255.023438 180.589844 255.230469 Z M 214.554688 259.441406 C 213.984375 259.441406 213.464844 259.402344 212.96875 259.359375 L 180.453125 256.40625 C 178.695312 256.15625 177.097656 255.1875 176.03125 253.746094 C 174.96875 252.300781 174.535156 250.550781 174.808594 248.820312 C 174.8125 248.792969 174.820312 248.769531 174.828125 248.742188 C 174.910156 248.457031 176.945312 241.75 180.789062 239.839844 C 182.019531 239.226562 183.300781 239.164062 184.597656 239.652344 L 204.050781 248.085938 C 206.042969 248.816406 208.351562 248.339844 209.902344 246.855469 L 217.539062 239.523438 C 219.109375 238.015625 221.175781 237.085938 223.355469 236.898438 L 239.339844 235.421875 C 240.335938 235.332031 241.269531 235.769531 241.839844 236.574219 C 242.40625 237.375 242.5 238.378906 242.097656 239.269531 L 241.929688 239.644531 C 241.257812 241.085938 239.53125 241.855469 238.140625 242.46875 C 237.929688 242.5625 237.726562 242.652344 237.535156 242.742188 C 236.953125 243.011719 234.839844 243.5 231.679688 244.21875 C 230.066406 244.585938 228.539062 244.933594 227.6875 245.160156 C 226.796875 245.398438 226.101562 246.085938 225.867188 246.949219 C 225.726562 247.472656 225.570312 247.996094 225.398438 248.511719 C 225.285156 248.863281 225.300781 249.164062 225.441406 249.359375 C 225.582031 249.554688 225.863281 249.664062 226.226562 249.664062 C 226.226562 249.664062 226.230469 249.664062 226.230469 249.664062 C 226.625 249.648438 229.15625 248.9375 230.828125 248.464844 C 232.324219 248.042969 233.617188 247.679688 234.089844 247.589844 C 236.667969 247.105469 237.847656 248.917969 238.109375 249.941406 C 238.363281 250.796875 238.253906 251.714844 237.804688 252.507812 C 237.347656 253.3125 236.601562 253.882812 235.699219 254.113281 L 218.140625 258.957031 C 216.683594 259.332031 215.539062 259.441406 214.554688 259.441406 " fill-opacity="1" fill-rule="nonzero"/><path fill="#ffffff" d="M 192.375 256.691406 C 189.855469 252.121094 193.167969 246.773438 194.964844 244.40625 C 195.460938 243.746094 195.230469 242.808594 194.484375 242.457031 L 190.675781 240.648438 C 190.152344 240.402344 189.53125 240.523438 189.140625 240.945312 C 186.84375 243.402344 179.875 251.835938 186.214844 257.851562 C 186.421875 258.046875 186.699219 258.164062 186.988281 258.195312 L 191.09375 258.589844 C 192.132812 258.695312 192.875 257.601562 192.375 256.691406 " fill-opacity="1" fill-rule="nonzero"/><path fill="#000000" d="M 190.109375 241.117188 C 189.910156 241.117188 189.71875 241.195312 189.574219 241.347656 C 187.378906 243.695312 180.683594 251.789062 186.621094 257.421875 C 186.726562 257.519531 186.882812 257.589844 187.042969 257.601562 L 191.148438 258.003906 C 191.421875 258.027344 191.675781 257.90625 191.828125 257.679688 C 191.894531 257.574219 192.035156 257.300781 191.859375 256.976562 C 189.132812 252.039062 192.792969 246.289062 194.488281 244.046875 C 194.621094 243.878906 194.664062 243.664062 194.613281 243.457031 C 194.5625 243.25 194.425781 243.085938 194.230469 242.992188 L 190.421875 241.183594 C 190.320312 241.136719 190.214844 241.117188 190.109375 241.117188 Z M 191.222656 259.191406 C 191.160156 259.191406 191.097656 259.1875 191.035156 259.183594 L 186.933594 258.785156 C 186.503906 258.742188 186.105469 258.566406 185.804688 258.28125 C 179.074219 251.894531 186.324219 243.085938 188.707031 240.539062 C 189.28125 239.925781 190.171875 239.757812 190.929688 240.113281 L 194.738281 241.921875 C 195.257812 242.164062 195.632812 242.625 195.765625 243.175781 C 195.902344 243.726562 195.78125 244.308594 195.4375 244.761719 C 193.878906 246.820312 190.507812 252.074219 192.894531 256.40625 C 193.234375 257.023438 193.207031 257.742188 192.816406 258.332031 C 192.464844 258.871094 191.863281 259.191406 191.222656 259.191406 " fill-opacity="1" fill-rule="nonzero"/><path fill="#caddff" d="M 194.160156 247.5625 C 194.160156 250.289062 191.914062 252.5 189.140625 252.5 C 186.367188 252.5 184.121094 250.289062 184.121094 247.5625 C 184.121094 244.835938 186.367188 242.628906 189.140625 242.628906 C 191.914062 242.628906 194.160156 244.835938 194.160156 247.5625 " fill-opacity="1" fill-rule="nonzero"/><path fill="#000000" d="M 189.140625 243.21875 C 186.699219 243.21875 184.714844 245.167969 184.714844 247.5625 C 184.714844 249.957031 186.699219 251.90625 189.140625 251.90625 C 191.582031 251.90625 193.566406 249.957031 193.566406 247.5625 C 193.566406 245.167969 191.582031 243.21875 189.140625 243.21875 Z M 189.140625 253.09375 C 186.042969 253.09375 183.527344 250.613281 183.527344 247.5625 C 183.527344 244.515625 186.042969 242.035156 189.140625 242.035156 C 192.234375 242.035156 194.753906 244.515625 194.753906 247.5625 C 194.753906 250.613281 192.234375 253.09375 189.140625 253.09375 " fill-opacity="1" fill-rule="nonzero"/><path fill="#ffffff" d="M 56.925781 229.378906 L 54.664062 186.375 L 83.828125 203.246094 L 85.59375 226.972656 C 85.851562 232.273438 81.570312 235.601562 81.570312 235.601562 C 76.304688 240.167969 68.359375 240.089844 62.285156 236.636719 L 60.878906 235.835938 C 58.523438 234.5 57.03125 232.058594 56.925781 229.378906 " fill-opacity="1" fill-rule="nonzero"/><path fill="#000000" d="M 55.3125 187.433594 L 57.515625 229.347656 C 57.515625 229.347656 57.515625 229.351562 57.515625 229.355469 C 57.617188 231.847656 58.980469 234.078125 61.171875 235.320312 L 62.578125 236.121094 C 68.796875 239.65625 76.445312 239.257812 81.183594 235.15625 C 81.246094 235.105469 85.242188 231.917969 85.003906 227.003906 L 83.261719 203.601562 Z M 71.597656 239.757812 C 68.390625 239.757812 65.058594 238.894531 61.992188 237.152344 L 60.585938 236.351562 C 58.039062 234.90625 56.449219 232.308594 56.332031 229.40625 L 54.070312 186.40625 C 54.058594 186.191406 54.167969 185.984375 54.355469 185.867188 C 54.539062 185.757812 54.773438 185.753906 54.960938 185.863281 L 84.128906 202.734375 C 84.296875 202.832031 84.40625 203.007812 84.421875 203.203125 L 86.183594 226.929688 C 86.457031 232.488281 82.121094 235.929688 81.9375 236.074219 C 79.117188 238.515625 75.445312 239.757812 71.597656 239.757812 " fill-opacity="1" fill-rule="nonzero"/><path fill="#000000" d="M 96.832031 147.757812 C 89.589844 146.277344 97.691406 154.996094 71.816406 143.308594 C 61.511719 138.65625 65.152344 151.769531 62.476562 150.570312 C 52.59375 146.140625 49.886719 145.03125 44.664062 145.59375 C 41.203125 145.964844 33.207031 151.402344 33.664062 155.980469 C 35.160156 170.910156 42.234375 168.054688 44.824219 181.265625 C 46.644531 190.542969 48.777344 193.601562 52.191406 195.414062 C 55.644531 197.25 59.035156 192.84375 62.960938 194.566406 C 68.039062 196.800781 65.679688 205.636719 70.289062 210.121094 C 73.191406 212.945312 80.589844 215.140625 93.542969 211.125 C 95.644531 210.476562 96.972656 208.4375 96.695312 206.277344 C 96.339844 203.511719 95.871094 200.019531 95.140625 196.71875 C 91.65625 180.984375 86.742188 176.820312 89.265625 173.246094 C 93.128906 167.769531 104.039062 172.828125 106.636719 168.246094 C 109.335938 163.484375 106.746094 149.785156 96.832031 147.757812 " fill-opacity="1" fill-rule="nonzero"/><path fill="#ffffff" d="M 67.597656 169.703125 L 69.109375 173.777344 C 69.832031 175.738281 70.425781 177.742188 70.871094 179.78125 C 71.699219 183.578125 73.386719 190.058594 74.289062 193.714844 C 77.191406 205.441406 92.832031 195.304688 92.832031 195.304688 L 94.238281 192.402344 L 96.210938 191.929688 C 96.570312 191.84375 96.917969 191.691406 97.191406 191.445312 C 97.945312 190.78125 98.109375 189.75 97.699219 188.917969 C 95.738281 184.949219 91.953125 176.617188 90.523438 168.867188 C 90.183594 167.015625 88.703125 165.5625 86.824219 165.203125 C 82.625 164.398438 75.023438 164.097656 67.597656 169.703125 " fill-opacity="1" fill-rule="nonzero"/><path fill="#000000" d="M 68.308594 169.914062 L 69.664062 173.570312 C 70.40625 175.582031 71.007812 177.628906 71.449219 179.65625 C 72.046875 182.398438 73.117188 186.628906 73.976562 190.027344 C 74.308594 191.34375 74.617188 192.566406 74.863281 193.570312 C 75.464844 195.996094 76.691406 197.59375 78.511719 198.3125 C 83.410156 200.253906 91.242188 195.59375 92.371094 194.894531 L 93.707031 192.144531 C 93.785156 191.980469 93.929688 191.867188 94.101562 191.824219 L 96.074219 191.351562 C 96.375 191.277344 96.617188 191.160156 96.796875 191.003906 C 97.324219 190.535156 97.472656 189.800781 97.167969 189.179688 C 95.078125 184.949219 91.367188 176.707031 89.941406 168.972656 C 89.644531 167.378906 88.351562 166.097656 86.710938 165.785156 C 82.921875 165.058594 75.535156 164.648438 68.308594 169.914062 Z M 81.222656 199.964844 C 80.125 199.964844 79.058594 199.800781 78.074219 199.414062 C 75.878906 198.546875 74.410156 196.675781 73.714844 193.855469 C 73.464844 192.851562 73.15625 191.632812 72.824219 190.316406 C 71.964844 186.910156 70.894531 182.667969 70.292969 179.910156 C 69.863281 177.933594 69.277344 175.941406 68.550781 173.984375 L 67.042969 169.910156 C 66.953125 169.660156 67.03125 169.386719 67.242188 169.230469 C 74.945312 163.414062 82.886719 163.84375 86.9375 164.621094 C 89.046875 165.023438 90.722656 166.6875 91.105469 168.757812 C 92.507812 176.347656 96.171875 184.480469 98.230469 188.652344 C 98.777344 189.761719 98.519531 191.0625 97.585938 191.890625 C 97.257812 192.179688 96.84375 192.386719 96.351562 192.503906 L 94.652344 192.914062 L 93.363281 195.566406 C 93.316406 195.664062 93.242188 195.746094 93.152344 195.804688 C 92.839844 196.007812 86.652344 199.964844 81.222656 199.964844 " fill-opacity="1" fill-rule="nonzero"/><path fill="#ffffff" d="M 68.597656 183.496094 C 68.597656 183.496094 64.929688 173.554688 60.707031 176.140625 C 56.484375 178.730469 60.800781 189.578125 68.597656 183.496094 " fill-opacity="1" fill-rule="nonzero"/><path fill="#000000" d="M 90.441406 176.15625 C 88.730469 175.121094 86.976562 175.742188 86.421875 176.707031 C 83.285156 182.179688 85.082031 186.746094 86.585938 187.101562 C 89.058594 187.6875 91.257812 186.324219 91.75 180.578125 C 91.984375 177.886719 91.347656 176.707031 90.441406 176.15625 " fill-opacity="1" fill-rule="nonzero"/><path fill="#000000" d="M 88.453125 176.160156 C 88.449219 176.160156 88.441406 176.160156 88.4375 176.160156 L 65.195312 175.671875 C 64.867188 175.664062 64.605469 175.394531 64.613281 175.066406 C 64.621094 174.738281 64.894531 174.492188 65.21875 174.484375 L 88.464844 174.972656 C 88.792969 174.980469 89.050781 175.25 89.042969 175.578125 C 89.039062 175.902344 88.773438 176.160156 88.453125 176.160156 " fill-opacity="1" fill-rule="nonzero"/><path fill="#000000" d="M 93.269531 176.9375 C 93.269531 176.9375 97.917969 174.300781 99.210938 177.457031 C 100.777344 181.273438 98.269531 186.035156 97.335938 186.308594 L 93.269531 176.9375 " fill-opacity="1" fill-rule="nonzero"/><path fill="#ffffff" d="M 204.546875 82.421875 C 204.546875 97.785156 192.09375 110.238281 176.726562 110.238281 C 161.363281 110.238281 148.910156 97.785156 148.910156 82.421875 C 148.910156 67.058594 161.363281 54.605469 176.726562 54.605469 C 192.09375 54.605469 204.546875 67.058594 204.546875 82.421875 " fill-opacity="1" fill-rule="nonzero"/><path fill="#000000" d="M 176.730469 55.195312 C 161.714844 55.195312 149.503906 67.410156 149.503906 82.421875 C 149.503906 97.429688 161.714844 109.640625 176.730469 109.640625 C 191.738281 109.640625 203.957031 97.429688 203.957031 82.421875 C 203.957031 67.410156 191.738281 55.195312 176.730469 55.195312 Z M 176.730469 110.828125 C 161.0625 110.828125 148.316406 98.082031 148.316406 82.421875 C 148.316406 66.753906 161.0625 54.011719 176.730469 54.011719 C 192.394531 54.011719 205.140625 66.753906 205.140625 82.421875 C 205.140625 98.082031 192.394531 110.828125 176.730469 110.828125 " fill-opacity="1" fill-rule="nonzero"/><path fill="#215bff" d="M 189.902344 76.710938 L 183.542969 76.710938 L 183.457031 76.289062 L 183.457031 76.292969 L 171.667969 70.722656 C 171.097656 70.453125 170.460938 70.882812 170.453125 71.527344 L 170.265625 90.925781 C 170.261719 91.589844 170.835938 92.046875 171.449219 91.820312 L 183.320312 87.371094 L 183.289062 86.988281 L 189.96875 86.988281 C 190.53125 86.988281 190.992188 86.828125 191 86.25 L 191.089844 77.691406 C 191.097656 77.015625 190.570312 76.710938 189.902344 76.710938 " fill-opacity="1" fill-rule="nonzero"/><path fill="#215bff" d="M 167.25 73.742188 C 167.226562 74.039062 167.113281 74.335938 166.910156 74.566406 C 165.03125 76.71875 163.976562 79.089844 163.769531 81.617188 C 163.5625 84.144531 164.214844 86.644531 165.71875 89.050781 C 166.082031 89.632812 165.953125 90.457031 165.429688 90.886719 C 164.90625 91.316406 164.1875 91.191406 163.824219 90.609375 C 162.027344 87.730469 161.214844 84.5625 161.46875 81.445312 C 161.726562 78.324219 163.050781 75.316406 165.292969 72.746094 C 165.75 72.222656 166.480469 72.207031 166.925781 72.710938 C 167.175781 72.992188 167.28125 73.371094 167.25 73.742188 " fill-opacity="1" fill-rule="nonzero"/><path fill="#215bff" d="M 163.359375 70.394531 C 163.335938 70.699219 163.21875 70.996094 163.011719 71.226562 C 160.316406 74.265625 158.796875 77.628906 158.5 81.214844 C 158.207031 84.804688 159.15625 88.355469 161.320312 91.761719 C 161.691406 92.339844 161.566406 93.160156 161.046875 93.597656 C 160.527344 94.03125 159.808594 93.914062 159.4375 93.335938 C 158.234375 91.4375 157.34375 89.453125 156.796875 87.429688 C 156.226562 85.328125 156.027344 83.179688 156.203125 81.042969 C 156.378906 78.910156 156.929688 76.816406 157.835938 74.824219 C 158.707031 72.910156 159.90625 71.082031 161.410156 69.390625 C 161.871094 68.871094 162.597656 68.863281 163.042969 69.371094 C 163.285156 69.652344 163.390625 70.027344 163.359375 70.394531 " fill-opacity="1" fill-rule="nonzero"/><path fill="#215bff" d="M 174.855469 96.78125 L 177.421875 97.707031 L 187.925781 68.128906 L 185.363281 67.203125 L 174.855469 96.78125 " fill-opacity="1" fill-rule="nonzero"/><path fill="#ffffff" d="M 175.609375 96.425781 L 177.058594 96.949219 L 187.167969 68.488281 L 185.722656 67.964844 Z M 177.777344 98.472656 L 174.101562 97.140625 L 185 66.441406 L 188.679688 67.773438 L 177.777344 98.472656 " fill-opacity="1" fill-rule="nonzero"/><path fill="#ffffff" d="M 315.886719 122.6875 C 315.886719 138.050781 303.433594 150.503906 288.070312 150.503906 C 272.703125 150.503906 260.25 138.050781 260.25 122.6875 C 260.25 107.328125 272.703125 94.875 288.070312 94.875 C 303.433594 94.875 315.886719 107.328125 315.886719 122.6875 " fill-opacity="1" fill-rule="nonzero"/><path fill="#000000" d="M 288.066406 95.46875 C 273.054688 95.46875 260.839844 107.679688 260.839844 122.691406 C 260.839844 137.703125 273.054688 149.914062 288.066406 149.914062 C 303.082031 149.914062 315.292969 137.703125 315.292969 122.691406 C 315.292969 107.679688 303.082031 95.46875 288.066406 95.46875 Z M 288.066406 151.097656 C 272.402344 151.097656 259.65625 138.355469 259.65625 122.691406 C 259.65625 107.027344 272.402344 94.28125 288.066406 94.28125 C 303.734375 94.28125 316.480469 107.027344 316.480469 122.691406 C 316.480469 138.355469 303.734375 151.097656 288.066406 151.097656 " fill-opacity="1" fill-rule="nonzero"/><path fill="#215bff" d="M 297.355469 127.234375 L 293.101562 126.671875 L 293.277344 109.875 L 297.722656 110.234375 L 297.679688 126.953125 C 297.679688 127.128906 297.53125 127.257812 297.355469 127.234375 " fill-opacity="1" fill-rule="nonzero"/><path fill="#215bff" d="M 297.351562 124.375 L 281.992188 124.34375 C 281.660156 124.34375 281.375 124.542969 281.265625 124.84375 L 276.242188 138.707031 L 278.9375 139.847656 L 284.015625 127.761719 C 284.148438 127.449219 284.453125 127.25 284.800781 127.25 L 297.335938 127.25 C 297.457031 127.25 297.550781 127.144531 297.542969 127.023438 L 297.351562 124.375 " fill-opacity="1" fill-rule="nonzero"/><path fill="#215bff" d="M 279.054688 139.6875 C 278.890625 140.089844 278.421875 140.261719 278.007812 140.070312 L 273.394531 137.957031 C 272.960938 137.757812 272.742188 137.257812 272.914062 136.835938 L 273.15625 136.21875 C 273.339844 135.753906 273.878906 135.554688 274.359375 135.773438 L 279.6875 138.019531 L 279.054688 139.6875 " fill-opacity="1" fill-rule="nonzero"/><path fill="#215bff" d="M 294.214844 120.003906 L 283.3125 120.003906 C 283.113281 120.003906 282.941406 119.84375 282.929688 119.648438 L 282.824219 118.207031 C 282.8125 118.007812 282.960938 117.847656 283.15625 117.847656 L 294.058594 117.847656 C 294.253906 117.847656 294.425781 118.007812 294.4375 118.207031 L 294.542969 119.648438 C 294.554688 119.84375 294.40625 120.003906 294.214844 120.003906 " fill-opacity="1" fill-rule="nonzero"/><path fill="#215bff" d="M 298.570312 105.621094 C 298.933594 107.363281 297.835938 108.972656 296.117188 109.214844 C 294.402344 109.457031 292.710938 108.238281 292.347656 106.492188 C 291.984375 104.75 293.082031 103.140625 294.800781 102.902344 C 296.519531 102.660156 298.203125 103.875 298.570312 105.621094 " fill-opacity="1" fill-rule="nonzero"/><path fill="#215bff" d="M 302.839844 123.234375 C 302.300781 122.394531 301.480469 121.320312 300.371094 120.363281 C 300.128906 120.152344 299.722656 119.773438 299.078125 119.34375 L 299.089844 122.816406 C 300.761719 124.429688 301.722656 126.738281 301.882812 128.949219 C 302.226562 133.753906 298.660156 137.65625 293.882812 137.65625 C 290.960938 137.65625 288.0625 136.09375 286.226562 133.699219 C 285.816406 133.171875 285.484375 132.609375 285.203125 132.007812 C 285.203125 132.007812 284.574219 130.917969 284.453125 129.445312 L 282.941406 132.789062 C 283.292969 133.546875 283.652344 134.21875 284.042969 134.675781 C 286.292969 138.054688 290.042969 140.085938 293.953125 140.085938 C 296.492188 140.085938 299.007812 139.296875 300.871094 137.691406 C 302.703125 136.109375 304.085938 133.746094 304.460938 131.285156 C 304.890625 128.445312 304.453125 125.746094 302.839844 123.234375 " fill-opacity="1" fill-rule="nonzero"/><path fill="#215bff" d="M 269.09375 79.960938 C 269.09375 95.324219 256.640625 107.777344 241.277344 107.777344 C 225.914062 107.777344 213.457031 95.324219 213.457031 79.960938 C 213.457031 64.601562 225.914062 52.144531 241.277344 52.144531 C 256.640625 52.144531 269.09375 64.601562 269.09375 79.960938 " fill-opacity="1" fill-rule="nonzero"/><path fill="#ffffff" d="M 262.941406 81.097656 C 249.011719 66.527344 234.621094 66.402344 219.761719 81.289062 C 230.242188 94.160156 250.363281 96.078125 262.941406 81.097656 " fill-opacity="1" fill-rule="nonzero"/><path fill="#215bff" d="M 220.5625 81.328125 C 225.75 87.457031 233.207031 90.996094 241.101562 91.054688 C 249.078125 91.101562 256.53125 87.589844 262.140625 81.121094 C 255.5 74.304688 248.707031 70.816406 241.945312 70.742188 C 234.964844 70.667969 227.773438 74.226562 220.5625 81.328125 Z M 241.304688 92.238281 C 241.234375 92.238281 241.164062 92.238281 241.09375 92.238281 C 232.664062 92.179688 224.722656 88.320312 219.300781 81.664062 C 219.109375 81.429688 219.125 81.085938 219.339844 80.871094 C 226.917969 73.28125 234.511719 69.464844 241.957031 69.558594 C 249.175781 69.632812 256.378906 73.378906 263.367188 80.6875 C 263.578125 80.90625 263.589844 81.246094 263.394531 81.476562 C 257.566406 88.421875 249.726562 92.238281 241.304688 92.238281 " fill-opacity="1" fill-rule="nonzero"/><path fill="#215bff" d="M 249.269531 81.167969 C 249.269531 85.394531 245.84375 88.820312 241.621094 88.820312 C 237.394531 88.820312 233.964844 85.394531 233.964844 81.167969 C 233.964844 76.941406 237.394531 73.515625 241.621094 73.515625 C 245.84375 73.515625 249.269531 76.941406 249.269531 81.167969 " fill-opacity="1" fill-rule="nonzero"/><path fill="#ffffff" d="M 234.574219 93.714844 L 236.792969 94.847656 L 250.054688 68.832031 L 247.835938 67.703125 L 234.574219 93.714844 " fill-opacity="1" fill-rule="nonzero"/><path fill="#215bff" d="M 235.375 93.457031 L 236.535156 94.046875 L 249.257812 69.089844 L 248.097656 68.5 Z M 236.796875 95.4375 C 236.703125 95.4375 236.609375 95.414062 236.527344 95.371094 L 234.308594 94.242188 C 234.015625 94.09375 233.902344 93.734375 234.050781 93.445312 L 247.308594 67.433594 C 247.457031 67.140625 247.816406 67.027344 248.109375 67.171875 L 250.324219 68.300781 C 250.464844 68.375 250.570312 68.5 250.617188 68.648438 C 250.667969 68.796875 250.65625 68.960938 250.582031 69.101562 L 237.324219 95.113281 C 237.253906 95.253906 237.128906 95.359375 236.976562 95.410156 C 236.917969 95.429688 236.855469 95.4375 236.796875 95.4375 " fill-opacity="1" fill-rule="nonzero"/><path fill="#215bff" d="M 322.828125 184.621094 C 322.828125 199.984375 310.371094 212.4375 295.007812 212.4375 C 279.644531 212.4375 267.191406 199.984375 267.191406 184.621094 C 267.191406 169.261719 279.644531 156.808594 295.007812 156.808594 C 310.371094 156.808594 322.828125 169.261719 322.828125 184.621094 " fill-opacity="1" fill-rule="nonzero"/><path fill="#ffffff" d="M 303.03125 185.289062 C 302.257812 190.441406 300.148438 193.214844 298.371094 196.917969 C 296.503906 200.808594 296.316406 203.953125 291.300781 204.253906 C 288.136719 204.441406 285.273438 201.984375 284.03125 198.261719 C 282.851562 194.722656 283.273438 190.058594 281.445312 184.554688 C 276.8125 170.585938 286.921875 163.019531 293.175781 165.046875 C 303.101562 168.261719 303.96875 179.015625 303.03125 185.289062 " fill-opacity="1" fill-rule="nonzero"/><path fill="#215bff" d="M 290.898438 197.625 C 290.714844 197.625 290.539062 197.542969 290.421875 197.390625 C 289.691406 196.417969 287.636719 195.792969 285.839844 195.996094 C 285.515625 196.03125 285.222656 195.796875 285.183594 195.472656 C 285.148438 195.148438 285.382812 194.851562 285.707031 194.816406 C 287.613281 194.601562 290.242188 195.179688 291.367188 196.675781 C 291.566406 196.9375 291.511719 197.308594 291.253906 197.503906 C 291.144531 197.585938 291.019531 197.625 290.898438 197.625 " fill-opacity="1" fill-rule="nonzero"/><path fill="#215bff" d="M 297.75 193.261719 C 297.644531 193.261719 297.535156 193.230469 297.441406 193.171875 C 297.160156 193 297.074219 192.632812 297.246094 192.355469 C 302.398438 184.023438 300.886719 173.964844 296.3125 170.144531 C 293.429688 167.738281 289.515625 167.3125 287.792969 167.925781 C 285.355469 168.796875 284.230469 170.695312 283.71875 172.128906 C 282.785156 174.726562 283.113281 177.859375 284.570312 180.308594 C 285.535156 181.914062 287.078125 183.742188 288.054688 183.964844 C 288.371094 184.039062 288.570312 184.359375 288.5 184.675781 C 288.425781 184.996094 288.105469 185.195312 287.789062 185.121094 C 285.851562 184.675781 283.785156 181.296875 283.554688 180.914062 C 281.917969 178.171875 281.554688 174.652344 282.601562 171.730469 C 283.449219 169.359375 285.152344 167.613281 287.394531 166.808594 C 289.675781 165.992188 294.019531 166.6875 297.070312 169.234375 C 302.644531 173.886719 303.199219 184.980469 298.253906 192.980469 C 298.140625 193.160156 297.949219 193.261719 297.75 193.261719 " fill-opacity="1" fill-rule="nonzero"/><path fill="#215bff" d="M 287.222656 193.507812 C 287.179688 193.507812 287.144531 193.503906 287.101562 193.496094 C 286.78125 193.429688 286.574219 193.113281 286.640625 192.792969 C 287.109375 190.554688 290.371094 187.1875 294.074219 185.125 C 295.074219 184.566406 295.484375 183.507812 295.648438 182.722656 C 296.066406 180.699219 295.421875 178.1875 294 176.320312 C 292.566406 174.441406 289.890625 172.488281 287.421875 172.636719 C 285.773438 172.734375 284.371094 173.75 283.261719 175.644531 C 283.09375 175.929688 282.730469 176.023438 282.449219 175.855469 C 282.167969 175.691406 282.070312 175.328125 282.234375 175.046875 C 283.5625 172.785156 285.28125 171.578125 287.347656 171.449219 C 290.277344 171.273438 293.273438 173.40625 294.941406 175.601562 C 296.566406 177.734375 297.296875 180.621094 296.808594 182.960938 C 296.5 184.441406 295.753906 185.542969 294.652344 186.160156 C 290.984375 188.199219 288.148438 191.363281 287.804688 193.035156 C 287.742188 193.316406 287.496094 193.507812 287.222656 193.507812 " fill-opacity="1" fill-rule="nonzero"/><path fill="#ffffff" d="M 305.992188 180.941406 C 305.753906 180.941406 305.527344 180.792969 305.4375 180.554688 C 305.324219 180.25 305.476562 179.910156 305.785156 179.796875 L 313.75 176.808594 C 314.054688 176.691406 314.398438 176.847656 314.511719 177.15625 C 314.628906 177.460938 314.46875 177.804688 314.167969 177.917969 L 306.203125 180.902344 C 306.132812 180.929688 306.0625 180.941406 305.992188 180.941406 " fill-opacity="1" fill-rule="nonzero"/><path fill="#ffffff" d="M 315.476562 186.191406 L 306.78125 186.191406 C 306.453125 186.191406 306.1875 185.921875 306.1875 185.597656 C 306.1875 185.269531 306.453125 185 306.78125 185 L 315.476562 185 C 315.804688 185 316.070312 185.269531 316.070312 185.597656 C 316.070312 185.921875 315.804688 186.191406 315.476562 186.191406 " fill-opacity="1" fill-rule="nonzero"/><path fill="#ffffff" d="M 314.703125 193.632812 C 314.632812 193.632812 314.5625 193.617188 314.488281 193.589844 L 306.777344 190.605469 C 306.46875 190.488281 306.316406 190.144531 306.4375 189.839844 C 306.554688 189.535156 306.898438 189.382812 307.207031 189.5 L 314.917969 192.488281 C 315.222656 192.605469 315.375 192.945312 315.257812 193.253906 C 315.167969 193.488281 314.941406 193.632812 314.703125 193.632812 " fill-opacity="1" fill-rule="nonzero"/><path fill="#ffffff" d="M 224.214844 130.726562 L 224.300781 130.652344 L 222.769531 128.121094 C 222.378906 127.476562 221.511719 127.324219 220.925781 127.792969 L 215.222656 132.378906 L 188.855469 140.644531 C 187.71875 141 187.457031 142.496094 188.410156 143.214844 L 193.753906 147.265625 C 194.480469 147.820312 194.535156 148.886719 193.871094 149.511719 L 193.652344 149.714844 L 161.585938 175.492188 L 163.3125 178.816406 C 163.335938 179.222656 163.519531 179.621094 163.871094 179.894531 L 181.464844 193.660156 C 182.066406 194.132812 182.933594 194.058594 183.449219 193.488281 L 210.800781 163.234375 C 211.332031 162.644531 212.234375 162.585938 212.835938 163.105469 L 219.550781 168.894531 C 220.460938 169.679688 221.882812 169.089844 221.960938 167.886719 L 224.421875 131.589844 C 224.445312 131.269531 224.363281 130.96875 224.214844 130.726562 " fill-opacity="1" fill-rule="nonzero"/><path fill="#215bff" d="M 162.03125 174.496094 L 191.753906 146.785156 C 192.410156 146.171875 192.355469 145.117188 191.636719 144.578125 L 186.359375 140.585938 C 185.421875 139.878906 185.675781 138.40625 186.796875 138.054688 L 220.046875 127.664062 C 221.015625 127.363281 221.988281 128.128906 221.917969 129.144531 L 219.488281 164.867188 C 219.410156 166.054688 218.007812 166.640625 217.109375 165.863281 L 210.480469 160.164062 C 209.886719 159.652344 208.992188 159.710938 208.46875 160.289062 L 181.460938 190.070312 C 180.953125 190.628906 180.097656 190.703125 179.503906 190.238281 L 162.128906 176.691406 C 161.429688 176.144531 161.382812 175.101562 162.03125 174.496094 " fill-opacity="1" fill-rule="nonzero"/><path fill="#000000" d="M 162.03125 174.496094 L 162.039062 174.496094 Z M 220.480469 128.191406 C 220.394531 128.191406 220.308594 128.207031 220.222656 128.230469 L 186.972656 138.621094 C 186.664062 138.71875 186.445312 138.96875 186.390625 139.289062 C 186.332031 139.609375 186.457031 139.917969 186.714844 140.113281 L 191.996094 144.101562 C 192.476562 144.46875 192.769531 145.019531 192.800781 145.625 C 192.832031 146.226562 192.597656 146.808594 192.15625 147.21875 L 162.4375 174.929688 C 162.253906 175.097656 162.15625 175.339844 162.167969 175.589844 C 162.175781 175.839844 162.296875 176.070312 162.496094 176.222656 L 179.863281 189.769531 C 180.214844 190.042969 180.722656 190 181.019531 189.671875 L 208.027344 159.890625 C 208.777344 159.066406 210.023438 158.988281 210.867188 159.71875 L 217.496094 165.414062 C 217.742188 165.628906 218.074219 165.679688 218.378906 165.554688 C 218.683594 165.425781 218.875 165.15625 218.898438 164.828125 L 221.328125 129.105469 C 221.347656 128.820312 221.226562 128.554688 221.003906 128.375 C 220.851562 128.253906 220.667969 128.191406 220.480469 128.191406 Z M 180.386719 191.136719 C 179.949219 191.136719 179.503906 190.996094 179.136719 190.707031 L 161.765625 177.160156 C 161.296875 176.789062 161.007812 176.238281 160.984375 175.640625 C 160.957031 175.042969 161.191406 174.46875 161.628906 174.0625 L 191.347656 146.351562 C 191.53125 146.179688 191.632812 145.9375 191.617188 145.683594 C 191.605469 145.433594 191.480469 145.203125 191.28125 145.050781 L 186 141.0625 C 185.386719 140.597656 185.089844 139.839844 185.222656 139.085938 C 185.351562 138.328125 185.890625 137.71875 186.621094 137.488281 L 219.871094 127.101562 C 220.511719 126.898438 221.210938 127.027344 221.738281 127.445312 C 222.269531 127.863281 222.558594 128.511719 222.511719 129.183594 L 220.082031 164.90625 C 220.027344 165.679688 219.554688 166.347656 218.835938 166.648438 C 218.117188 166.949219 217.308594 166.820312 216.722656 166.3125 L 210.09375 160.617188 C 209.742188 160.3125 209.21875 160.34375 208.90625 160.6875 L 181.898438 190.46875 C 181.5 190.910156 180.945312 191.136719 180.386719 191.136719 " fill-opacity="1" fill-rule="nonzero"/></svg>