<svg xmlns="http://www.w3.org/2000/svg" xmlns:xlink="http://www.w3.org/1999/xlink" width="200" zoomAndPan="magnify" viewBox="0 0 375 374.999991" height="150" preserveAspectRatio="xMidYMid meet" version="1.0"><defs><clipPath id="814dbf533e"><path d="M 28.871094 21.394531 L 352.121094 21.394531 L 352.121094 360.394531 L 28.871094 360.394531 Z M 28.871094 21.394531 " clip-rule="nonzero"/></clipPath><clipPath id="c9420f9b95"><path d="M 28.871094 83 L 352.121094 83 L 352.121094 99 L 28.871094 99 Z M 28.871094 83 " clip-rule="nonzero"/></clipPath><clipPath id="e6b867607e"><path d="M 159 52 L 352.121094 52 L 352.121094 68 L 159 68 Z M 159 52 " clip-rule="nonzero"/></clipPath></defs><path fill="#ffffff" d="M 36.640625 90.738281 L 36.640625 334.777344 C 36.640625 344.671875 44.648438 352.691406 54.527344 352.691406 L 326.464844 352.691406 C 336.34375 352.691406 344.351562 344.671875 344.351562 334.777344 L 344.351562 90.738281 Z M 36.640625 90.738281 " fill-opacity="1" fill-rule="nonzero"/><path fill="#a7c7fc" d="M 67.414062 121.554688 L 313.578125 121.554688 L 313.578125 321.875 L 67.414062 321.875 Z M 67.414062 121.554688 " fill-opacity="1" fill-rule="nonzero"/><path fill="#ffffff" d="M 175.109375 244.828125 L 205.882812 244.828125 L 205.882812 275.644531 L 175.109375 275.644531 Z M 175.109375 244.828125 " fill-opacity="1" fill-rule="nonzero"/><path fill="#ffffff" d="M 228.960938 244.828125 L 259.730469 244.828125 L 259.730469 275.644531 L 228.960938 275.644531 Z M 228.960938 244.828125 " fill-opacity="1" fill-rule="nonzero"/><path fill="#ffffff" d="M 121.261719 244.828125 L 152.03125 244.828125 L 152.03125 275.644531 L 121.261719 275.644531 Z M 121.261719 244.828125 " fill-opacity="1" fill-rule="nonzero"/><path fill="#ffffff" d="M 167.417969 167.78125 L 213.574219 167.78125 L 213.574219 198.601562 L 167.417969 198.601562 Z M 167.417969 167.78125 " fill-opacity="1" fill-rule="nonzero"/><path fill="#ffffff" d="M 326.464844 29.101562 L 54.527344 29.101562 C 44.648438 29.101562 36.640625 37.121094 36.640625 47.015625 L 36.640625 90.738281 L 344.351562 90.738281 L 344.351562 47.015625 C 344.351562 37.121094 336.34375 29.101562 326.464844 29.101562 Z M 326.464844 29.101562 " fill-opacity="1" fill-rule="nonzero"/><path fill="#215bff" d="M 282.808594 291.054688 L 298.195312 291.054688 L 298.195312 306.464844 L 282.808594 306.464844 Z M 282.808594 291.054688 " fill-opacity="1" fill-rule="nonzero"/><path fill="#215bff" d="M 282.808594 160.078125 L 298.195312 160.078125 L 298.195312 283.351562 L 282.808594 283.351562 Z M 282.808594 160.078125 " fill-opacity="1" fill-rule="nonzero"/><path fill="#215bff" d="M 282.808594 136.964844 L 298.195312 136.964844 L 298.195312 152.375 L 282.808594 152.375 Z M 282.808594 136.964844 " fill-opacity="1" fill-rule="nonzero"/><path fill="#215bff" d="M 105.875 291.054688 L 275.117188 291.054688 L 275.117188 306.464844 L 105.875 306.464844 Z M 105.875 291.054688 " fill-opacity="1" fill-rule="nonzero"/><path fill="#215bff" d="M 105.875 136.964844 L 275.117188 136.964844 L 275.117188 152.375 L 105.875 152.375 Z M 105.875 136.964844 " fill-opacity="1" fill-rule="nonzero"/><path fill="#215bff" d="M 105.875 52.214844 L 121.261719 52.214844 L 121.261719 67.625 L 105.875 67.625 Z M 105.875 52.214844 " fill-opacity="1" fill-rule="nonzero"/><path fill="#215bff" d="M 82.796875 291.054688 L 98.183594 291.054688 L 98.183594 306.464844 L 82.796875 306.464844 Z M 82.796875 291.054688 " fill-opacity="1" fill-rule="nonzero"/><path fill="#215bff" d="M 82.796875 160.078125 L 98.183594 160.078125 L 98.183594 283.351562 L 82.796875 283.351562 Z M 82.796875 160.078125 " fill-opacity="1" fill-rule="nonzero"/><path fill="#215bff" d="M 82.796875 136.964844 L 98.183594 136.964844 L 98.183594 152.375 L 82.796875 152.375 Z M 82.796875 136.964844 " fill-opacity="1" fill-rule="nonzero"/><path fill="#215bff" d="M 82.796875 52.214844 L 98.183594 52.214844 L 98.183594 67.625 L 82.796875 67.625 Z M 82.796875 52.214844 " fill-opacity="1" fill-rule="nonzero"/><path fill="#215bff" d="M 59.71875 52.214844 L 75.105469 52.214844 L 75.105469 67.625 L 59.71875 67.625 Z M 59.71875 52.214844 " fill-opacity="1" fill-rule="nonzero"/><g clip-path="url(#814dbf533e)"><path fill="#215bff" d="M 326.464844 360.394531 L 54.527344 360.394531 C 40.421875 360.394531 28.949219 348.90625 28.949219 334.777344 L 28.949219 47.015625 C 28.949219 32.886719 40.421875 21.394531 54.527344 21.394531 L 326.464844 21.394531 C 340.570312 21.394531 352.042969 32.886719 352.042969 47.015625 L 352.042969 334.777344 C 352.042969 348.90625 340.570312 360.394531 326.464844 360.394531 Z M 54.527344 36.804688 C 48.90625 36.804688 44.335938 41.386719 44.335938 47.015625 L 44.335938 334.777344 C 44.335938 340.40625 48.90625 344.988281 54.527344 344.988281 L 326.464844 344.988281 C 332.085938 344.988281 336.65625 340.40625 336.65625 334.777344 L 336.65625 47.015625 C 336.65625 41.386719 332.085938 36.804688 326.464844 36.804688 Z M 54.527344 36.804688 " fill-opacity="1" fill-rule="nonzero"/></g><g clip-path="url(#c9420f9b95)"><path fill="#215bff" d="M 344.351562 98.441406 L 36.640625 98.441406 C 32.394531 98.441406 28.949219 94.992188 28.949219 90.738281 C 28.949219 86.480469 32.394531 83.03125 36.640625 83.03125 L 344.351562 83.03125 C 348.597656 83.03125 352.042969 86.480469 352.042969 90.738281 C 352.042969 94.992188 348.597656 98.441406 344.351562 98.441406 Z M 344.351562 98.441406 " fill-opacity="1" fill-rule="nonzero"/></g><g clip-path="url(#e6b867607e)"><path fill="#215bff" d="M 344.351562 67.625 L 167.417969 67.625 C 163.167969 67.625 159.726562 64.175781 159.726562 59.917969 C 159.726562 55.664062 163.167969 52.214844 167.417969 52.214844 L 344.351562 52.214844 C 348.597656 52.214844 352.042969 55.664062 352.042969 59.917969 C 352.042969 64.175781 348.597656 67.625 344.351562 67.625 Z M 344.351562 67.625 " fill-opacity="1" fill-rule="nonzero"/></g><path fill="#215bff" d="M 313.578125 329.578125 L 67.414062 329.578125 C 63.164062 329.578125 59.71875 326.128906 59.71875 321.875 L 59.71875 121.554688 C 59.71875 117.300781 63.164062 113.851562 67.414062 113.851562 L 313.578125 113.851562 C 317.828125 113.851562 321.273438 117.300781 321.273438 121.554688 L 321.273438 321.875 C 321.273438 326.128906 317.828125 329.578125 313.578125 329.578125 Z M 75.105469 314.167969 L 305.886719 314.167969 L 305.886719 129.261719 L 75.105469 129.261719 Z M 75.105469 314.167969 " fill-opacity="1" fill-rule="nonzero"/><path fill="#215bff" d="M 152.03125 283.351562 L 121.261719 283.351562 C 117.011719 283.351562 113.570312 279.902344 113.570312 275.644531 L 113.570312 244.828125 C 113.570312 240.574219 117.011719 237.125 121.261719 237.125 L 152.03125 237.125 C 156.28125 237.125 159.726562 240.574219 159.726562 244.828125 L 159.726562 275.644531 C 159.726562 279.902344 156.28125 283.351562 152.03125 283.351562 Z M 128.953125 267.941406 L 144.339844 267.941406 L 144.339844 252.53125 L 128.953125 252.53125 Z M 128.953125 267.941406 " fill-opacity="1" fill-rule="nonzero"/><path fill="#215bff" d="M 205.882812 283.351562 L 175.109375 283.351562 C 170.863281 283.351562 167.417969 279.902344 167.417969 275.644531 L 167.417969 244.828125 C 167.417969 240.574219 170.863281 237.125 175.109375 237.125 L 205.882812 237.125 C 210.128906 237.125 213.574219 240.574219 213.574219 244.828125 L 213.574219 275.644531 C 213.574219 279.902344 210.128906 283.351562 205.882812 283.351562 Z M 182.804688 267.941406 L 198.1875 267.941406 L 198.1875 252.53125 L 182.804688 252.53125 Z M 182.804688 267.941406 " fill-opacity="1" fill-rule="nonzero"/><path fill="#215bff" d="M 213.574219 206.304688 L 167.417969 206.304688 C 163.167969 206.304688 159.726562 202.855469 159.726562 198.601562 L 159.726562 167.78125 C 159.726562 163.527344 163.167969 160.078125 167.417969 160.078125 L 213.574219 160.078125 C 217.820312 160.078125 221.265625 163.527344 221.265625 167.78125 L 221.265625 198.601562 C 221.265625 202.855469 217.820312 206.304688 213.574219 206.304688 Z M 175.109375 190.894531 L 205.882812 190.894531 L 205.882812 175.488281 L 175.109375 175.488281 Z M 175.109375 190.894531 " fill-opacity="1" fill-rule="nonzero"/><path fill="#215bff" d="M 259.730469 283.351562 L 228.960938 283.351562 C 224.710938 283.351562 221.265625 279.902344 221.265625 275.644531 L 221.265625 244.828125 C 221.265625 240.574219 224.710938 237.125 228.960938 237.125 L 259.730469 237.125 C 263.980469 237.125 267.421875 240.574219 267.421875 244.828125 L 267.421875 275.644531 C 267.421875 279.902344 263.980469 283.351562 259.730469 283.351562 Z M 236.652344 267.941406 L 252.039062 267.941406 L 252.039062 252.53125 L 236.652344 252.53125 Z M 236.652344 267.941406 " fill-opacity="1" fill-rule="nonzero"/><path fill="#215bff" d="M 244.34375 252.53125 C 240.097656 252.53125 236.652344 249.082031 236.652344 244.828125 L 236.652344 229.417969 L 144.339844 229.417969 L 144.339844 244.828125 C 144.339844 249.082031 140.894531 252.53125 136.648438 252.53125 C 132.398438 252.53125 128.953125 249.082031 128.953125 244.828125 L 128.953125 221.714844 C 128.953125 217.460938 132.398438 214.011719 136.648438 214.011719 L 244.34375 214.011719 C 248.59375 214.011719 252.039062 217.460938 252.039062 221.714844 L 252.039062 244.828125 C 252.039062 249.082031 248.59375 252.53125 244.34375 252.53125 Z M 244.34375 252.53125 " fill-opacity="1" fill-rule="nonzero"/><path fill="#215bff" d="M 190.496094 252.53125 C 186.246094 252.53125 182.804688 249.082031 182.804688 244.828125 L 182.804688 198.601562 C 182.804688 194.347656 186.246094 190.894531 190.496094 190.894531 C 194.742188 190.894531 198.1875 194.347656 198.1875 198.601562 L 198.1875 244.828125 C 198.1875 249.082031 194.742188 252.53125 190.496094 252.53125 Z M 190.496094 252.53125 " fill-opacity="1" fill-rule="nonzero"/></svg>