<svg xmlns="http://www.w3.org/2000/svg" xmlns:xlink="http://www.w3.org/1999/xlink" width="200" zoomAndPan="magnify" viewBox="0 0 375 374.999991" height="150" preserveAspectRatio="xMidYMid meet" version="1.0"><defs><clipPath id="1d60db7bc9"><path d="M 66.070312 20.132812 L 324 20.132812 L 324 354.632812 L 66.070312 354.632812 Z M 66.070312 20.132812 " clip-rule="nonzero"/></clipPath><clipPath id="4768075dbc"><path d="M 319 20.132812 L 328.570312 20.132812 L 328.570312 354.632812 L 319 354.632812 Z M 319 20.132812 " clip-rule="nonzero"/></clipPath><clipPath id="cdd1100c56"><path d="M 318 20.132812 L 328.570312 20.132812 L 328.570312 354.632812 L 318 354.632812 Z M 318 20.132812 " clip-rule="nonzero"/></clipPath></defs><g clip-path="url(#1d60db7bc9)"><path fill="#215bff" d="M 323.101562 350.921875 C 323.101562 352.96875 321.4375 354.632812 319.390625 354.632812 L 69.992188 354.632812 C 67.941406 354.632812 66.28125 352.96875 66.28125 350.921875 L 66.28125 24.214844 C 66.28125 22.164062 67.941406 20.5 69.992188 20.5 L 319.398438 20.5 C 321.449219 20.5 323.109375 22.164062 323.109375 24.214844 L 323.109375 350.921875 Z M 323.101562 350.921875 " fill-opacity="1" fill-rule="nonzero"/></g><path fill="#f5f5f5" d="M 310.488281 135.777344 C 310.488281 137.828125 308.824219 139.492188 306.777344 139.492188 L 84.839844 139.492188 C 82.789062 139.492188 81.125 137.828125 81.125 135.777344 L 81.125 120.925781 C 81.125 118.878906 82.789062 117.214844 84.839844 117.214844 L 306.777344 117.214844 C 308.824219 117.214844 310.488281 118.878906 310.488281 120.925781 Z M 310.488281 42.777344 C 310.488281 40.730469 308.824219 39.066406 306.777344 39.066406 L 84.839844 39.066406 C 82.789062 39.066406 81.125 40.730469 81.125 42.777344 L 81.125 106.632812 C 81.125 108.683594 82.789062 110.347656 84.839844 110.347656 L 306.777344 110.347656 C 308.824219 110.347656 310.488281 108.683594 310.488281 106.632812 Z M 159.808594 295.226562 C 159.808594 297.273438 158.144531 298.9375 156.097656 298.9375 L 84.839844 298.9375 C 82.789062 298.9375 81.125 297.273438 81.125 295.226562 L 81.125 148.214844 C 81.125 146.164062 82.789062 144.5 84.839844 144.5 L 156.097656 144.5 C 158.144531 144.5 159.808594 146.164062 159.808594 148.214844 Z M 310.488281 295.226562 C 310.488281 297.273438 308.824219 298.9375 306.777344 298.9375 L 170.9375 298.9375 C 168.886719 298.9375 167.226562 297.273438 167.226562 295.226562 L 167.226562 148.214844 C 167.226562 146.164062 168.886719 144.5 170.9375 144.5 L 306.777344 144.5 C 308.824219 144.5 310.488281 146.164062 310.488281 148.214844 Z M 310.488281 337.558594 C 310.488281 339.605469 308.824219 341.269531 306.777344 341.269531 L 84.839844 341.269531 C 82.789062 341.269531 81.125 339.605469 81.125 337.558594 L 81.125 311.566406 C 81.125 309.515625 82.789062 307.851562 84.839844 307.851562 L 306.777344 307.851562 C 308.824219 307.851562 310.488281 309.515625 310.488281 311.566406 Z M 310.488281 337.558594 " fill-opacity="1" fill-rule="nonzero"/><path fill="#99b9ff" d="M 251.84375 211.324219 C 251.84375 213.375 250.179688 215.039062 248.132812 215.039062 L 178.359375 215.039062 C 176.3125 215.039062 174.648438 213.375 174.648438 211.324219 L 174.648438 155.640625 C 174.648438 153.589844 176.3125 151.925781 178.359375 151.925781 L 248.132812 151.925781 C 250.179688 151.925781 251.84375 153.589844 251.84375 155.640625 Z M 150.898438 155.640625 C 150.898438 153.589844 149.234375 151.925781 147.1875 151.925781 L 92.261719 151.925781 C 90.214844 151.925781 88.550781 153.589844 88.550781 155.640625 L 88.550781 219.496094 C 88.550781 221.542969 90.214844 223.207031 92.261719 223.207031 L 147.1875 223.207031 C 149.234375 223.207031 150.898438 221.542969 150.898438 219.496094 Z M 150.898438 233.601562 C 150.898438 231.554688 149.234375 229.890625 147.1875 229.890625 L 92.261719 229.890625 C 90.214844 229.890625 88.550781 231.554688 88.550781 233.601562 L 88.550781 284.085938 C 88.550781 286.136719 90.214844 287.800781 92.261719 287.800781 L 147.1875 287.800781 C 149.234375 287.800781 150.898438 286.136719 150.898438 284.085938 Z M 130.859375 123.894531 C 130.859375 121.847656 129.195312 120.183594 127.148438 120.183594 L 94.863281 120.183594 C 92.8125 120.183594 91.148438 121.847656 91.148438 123.894531 L 91.148438 132.800781 C 91.148438 134.851562 92.8125 136.515625 94.863281 136.515625 L 127.148438 136.515625 C 129.195312 136.515625 130.859375 134.851562 130.859375 132.800781 Z M 173.535156 124.085938 C 173.535156 122.039062 171.875 120.375 169.824219 120.375 L 137.539062 120.375 C 135.492188 120.375 133.828125 122.039062 133.828125 124.085938 L 133.828125 132.992188 C 133.828125 135.042969 135.492188 136.707031 137.539062 136.707031 L 169.824219 136.707031 C 171.875 136.707031 173.535156 135.042969 173.535156 132.992188 Z M 216.222656 124.085938 C 216.222656 122.039062 214.558594 120.375 212.511719 120.375 L 180.222656 120.375 C 178.175781 120.375 176.511719 122.039062 176.511719 124.085938 L 176.511719 132.992188 C 176.511719 135.042969 178.175781 136.707031 180.222656 136.707031 L 212.511719 136.707031 C 214.558594 136.707031 216.222656 135.042969 216.222656 132.992188 Z M 258.898438 124.085938 C 258.898438 122.039062 257.234375 120.375 255.1875 120.375 L 222.902344 120.375 C 220.851562 120.375 219.191406 122.039062 219.191406 124.085938 L 219.191406 132.992188 C 219.191406 135.042969 220.851562 136.707031 222.902344 136.707031 L 255.1875 136.707031 C 257.234375 136.707031 258.898438 135.042969 258.898438 132.992188 Z M 301.578125 124.085938 C 301.578125 122.039062 299.914062 120.375 297.863281 120.375 L 265.578125 120.375 C 263.53125 120.375 261.867188 122.039062 261.867188 124.085938 L 261.867188 132.992188 C 261.867188 135.042969 263.53125 136.707031 265.578125 136.707031 L 297.863281 136.707031 C 299.914062 136.707031 301.578125 135.042969 301.578125 132.992188 Z M 303.808594 47.980469 C 303.808594 45.929688 302.144531 44.265625 300.097656 44.265625 L 180.214844 44.265625 C 178.167969 44.265625 176.503906 45.929688 176.503906 47.980469 L 176.503906 101.441406 C 176.503906 103.492188 178.167969 105.15625 180.214844 105.15625 L 300.097656 105.15625 C 302.144531 105.15625 303.808594 103.492188 303.808594 101.441406 Z M 303.808594 47.980469 " fill-opacity="1" fill-rule="nonzero"/><path fill="#215bff" d="M 303.808594 223.808594 L 175.390625 223.808594 C 175.058594 223.808594 174.789062 223.542969 174.789062 223.207031 C 174.789062 222.875 175.058594 222.605469 175.390625 222.605469 L 303.808594 222.605469 C 304.144531 222.605469 304.410156 222.875 304.410156 223.207031 C 304.410156 223.542969 304.144531 223.808594 303.808594 223.808594 Z M 304.410156 210.730469 C 304.410156 210.398438 304.144531 210.128906 303.808594 210.128906 L 257.789062 210.128906 C 257.453125 210.128906 257.183594 210.398438 257.183594 210.730469 C 257.183594 211.066406 257.453125 211.332031 257.789062 211.332031 L 303.808594 211.332031 C 304.144531 211.332031 304.410156 211.066406 304.410156 210.730469 Z M 304.410156 198.261719 C 304.410156 197.929688 304.144531 197.660156 303.808594 197.660156 L 257.789062 197.660156 C 257.453125 197.660156 257.183594 197.929688 257.183594 198.261719 C 257.183594 198.597656 257.453125 198.863281 257.789062 198.863281 L 303.808594 198.863281 C 304.144531 198.855469 304.410156 198.589844 304.410156 198.261719 Z M 304.410156 185.785156 C 304.410156 185.453125 304.144531 185.183594 303.808594 185.183594 L 257.789062 185.183594 C 257.453125 185.183594 257.183594 185.453125 257.183594 185.785156 C 257.183594 186.121094 257.453125 186.386719 257.789062 186.386719 L 303.808594 186.386719 C 304.144531 186.386719 304.410156 186.121094 304.410156 185.785156 Z M 304.410156 173.308594 C 304.410156 172.972656 304.144531 172.707031 303.808594 172.707031 L 257.789062 172.707031 C 257.453125 172.707031 257.183594 172.972656 257.183594 173.308594 C 257.183594 173.644531 257.453125 173.910156 257.789062 173.910156 L 303.808594 173.910156 C 304.144531 173.910156 304.410156 173.644531 304.410156 173.308594 Z M 304.410156 160.839844 C 304.410156 160.507812 304.144531 160.238281 303.808594 160.238281 L 257.789062 160.238281 C 257.453125 160.238281 257.183594 160.507812 257.183594 160.839844 C 257.183594 161.175781 257.453125 161.441406 257.789062 161.441406 L 303.808594 161.441406 C 304.144531 161.433594 304.410156 161.167969 304.410156 160.839844 Z M 304.410156 235.683594 C 304.410156 235.351562 304.144531 235.082031 303.808594 235.082031 L 175.390625 235.082031 C 175.058594 235.082031 174.789062 235.351562 174.789062 235.683594 C 174.789062 236.019531 175.058594 236.285156 175.390625 236.285156 L 303.808594 236.285156 C 304.144531 236.277344 304.410156 236.011719 304.410156 235.683594 Z M 304.410156 248.152344 C 304.410156 247.820312 304.144531 247.550781 303.808594 247.550781 L 175.390625 247.550781 C 175.058594 247.550781 174.789062 247.820312 174.789062 248.152344 C 174.789062 248.488281 175.058594 248.753906 175.390625 248.753906 L 303.808594 248.753906 C 304.144531 248.753906 304.410156 248.488281 304.410156 248.152344 Z M 304.410156 260.628906 C 304.410156 260.296875 304.144531 260.027344 303.808594 260.027344 L 175.390625 260.027344 C 175.058594 260.027344 174.789062 260.296875 174.789062 260.628906 C 174.789062 260.964844 175.058594 261.230469 175.390625 261.230469 L 303.808594 261.230469 C 304.144531 261.230469 304.410156 260.964844 304.410156 260.628906 Z M 304.410156 273.105469 C 304.410156 272.773438 304.144531 272.503906 303.808594 272.503906 L 175.390625 272.503906 C 175.058594 272.503906 174.789062 272.773438 174.789062 273.105469 C 174.789062 273.441406 175.058594 273.710938 175.390625 273.710938 L 303.808594 273.710938 C 304.144531 273.710938 304.410156 273.433594 304.410156 273.105469 Z M 304.410156 285.574219 C 304.410156 285.242188 304.144531 284.972656 303.808594 284.972656 L 175.390625 284.972656 C 175.058594 284.972656 174.789062 285.242188 174.789062 285.574219 C 174.789062 285.910156 175.058594 286.175781 175.390625 286.175781 L 303.808594 286.175781 C 304.144531 286.175781 304.410156 285.910156 304.410156 285.574219 Z M 167.828125 70.25 C 167.828125 69.914062 167.558594 69.648438 167.226562 69.648438 L 91.140625 69.648438 C 90.808594 69.648438 90.539062 69.914062 90.539062 70.25 C 90.539062 70.582031 90.808594 70.851562 91.140625 70.851562 L 167.226562 70.851562 C 167.558594 70.851562 167.828125 70.582031 167.828125 70.25 Z M 156.691406 79.164062 C 156.691406 78.828125 156.425781 78.5625 156.089844 78.5625 L 102.277344 78.5625 C 101.941406 78.5625 101.675781 78.828125 101.675781 79.164062 C 101.675781 79.5 101.941406 79.765625 102.277344 79.765625 L 156.089844 79.765625 C 156.425781 79.765625 156.691406 79.5 156.691406 79.164062 Z M 160.402344 314.042969 C 160.402344 313.707031 160.136719 313.4375 159.800781 313.4375 L 86.695312 313.4375 C 86.359375 313.4375 86.09375 313.707031 86.09375 314.042969 C 86.09375 314.375 86.359375 314.644531 86.695312 314.644531 L 159.808594 314.644531 C 160.136719 314.644531 160.402344 314.375 160.402344 314.042969 Z M 160.402344 320.972656 C 160.402344 320.640625 160.136719 320.371094 159.800781 320.371094 L 86.695312 320.371094 C 86.359375 320.371094 86.09375 320.640625 86.09375 320.972656 C 86.09375 321.308594 86.359375 321.574219 86.695312 321.574219 L 159.808594 321.574219 C 160.136719 321.566406 160.402344 321.300781 160.402344 320.972656 Z M 160.402344 327.90625 C 160.402344 327.570312 160.136719 327.304688 159.800781 327.304688 L 86.695312 327.304688 C 86.359375 327.304688 86.09375 327.570312 86.09375 327.90625 C 86.09375 328.242188 86.359375 328.507812 86.695312 328.507812 L 159.808594 328.507812 C 160.136719 328.5 160.402344 328.234375 160.402344 327.90625 Z M 160.402344 334.832031 C 160.402344 334.496094 160.136719 334.226562 159.800781 334.226562 L 86.695312 334.226562 C 86.359375 334.226562 86.09375 334.496094 86.09375 334.832031 C 86.09375 335.164062 86.359375 335.433594 86.695312 335.433594 L 159.808594 335.433594 C 160.136719 335.433594 160.402344 335.164062 160.402344 334.832031 Z M 304.410156 314.042969 C 304.410156 313.707031 304.144531 313.4375 303.808594 313.4375 L 175.023438 313.4375 C 174.691406 313.4375 174.421875 313.707031 174.421875 314.042969 C 174.421875 314.375 174.691406 314.644531 175.023438 314.644531 L 303.808594 314.644531 C 304.144531 314.644531 304.410156 314.375 304.410156 314.042969 Z M 304.410156 320.972656 C 304.410156 320.640625 304.144531 320.371094 303.808594 320.371094 L 175.023438 320.371094 C 174.691406 320.371094 174.421875 320.640625 174.421875 320.972656 C 174.421875 321.308594 174.691406 321.574219 175.023438 321.574219 L 303.808594 321.574219 C 304.144531 321.566406 304.410156 321.300781 304.410156 320.972656 Z M 304.410156 327.90625 C 304.410156 327.570312 304.144531 327.304688 303.808594 327.304688 L 175.023438 327.304688 C 174.691406 327.304688 174.421875 327.570312 174.421875 327.90625 C 174.421875 328.242188 174.691406 328.507812 175.023438 328.507812 L 303.808594 328.507812 C 304.144531 328.5 304.410156 328.234375 304.410156 327.90625 Z M 304.410156 334.832031 C 304.410156 334.496094 304.144531 334.226562 303.808594 334.226562 L 175.023438 334.226562 C 174.691406 334.226562 174.421875 334.496094 174.421875 334.832031 C 174.421875 335.164062 174.691406 335.433594 175.023438 335.433594 L 303.808594 335.433594 C 304.144531 335.433594 304.410156 335.164062 304.410156 334.832031 Z M 304.410156 334.832031 " fill-opacity="1" fill-rule="nonzero"/><g clip-path="url(#4768075dbc)"><path fill="#f5f5f5" d="M 328.117188 350.921875 C 328.117188 352.96875 326.457031 354.632812 324.40625 354.632812 L 323.109375 354.632812 C 321.0625 354.632812 319.398438 352.96875 319.398438 350.921875 L 319.398438 24.214844 C 319.398438 22.164062 321.0625 20.5 323.109375 20.5 L 324.40625 20.5 C 326.457031 20.5 328.117188 22.164062 328.117188 24.214844 Z M 328.117188 350.921875 " fill-opacity="1" fill-rule="nonzero"/></g><g clip-path="url(#cdd1100c56)"><path fill="#c9c9c9" d="M 328.117188 238.527344 C 328.117188 240.578125 326.457031 242.242188 324.40625 242.242188 L 323.109375 242.242188 C 321.0625 242.242188 319.398438 240.578125 319.398438 238.527344 L 319.398438 232.832031 C 319.398438 230.785156 321.0625 229.121094 323.109375 229.121094 L 324.40625 229.121094 C 326.457031 229.121094 328.117188 230.785156 328.117188 232.832031 Z M 328.394531 23.847656 C 328.394531 21.796875 326.730469 20.132812 324.683594 20.132812 L 322.644531 20.132812 C 320.59375 20.132812 318.929688 21.796875 318.929688 23.847656 L 318.929688 25.886719 C 318.929688 27.933594 320.59375 29.597656 322.644531 29.597656 L 324.683594 29.597656 C 326.730469 29.597656 328.394531 27.933594 328.394531 25.886719 Z M 318.929688 350.921875 C 318.929688 352.96875 320.59375 354.632812 322.644531 354.632812 L 324.683594 354.632812 C 326.730469 354.632812 328.394531 352.96875 328.394531 350.921875 L 328.394531 348.878906 C 328.394531 346.832031 326.730469 345.167969 324.683594 345.167969 L 322.644531 345.167969 C 320.59375 345.167969 318.929688 346.832031 318.929688 348.878906 Z M 318.929688 350.921875 " fill-opacity="1" fill-rule="nonzero"/></g><path fill="#9c9c9c" d="M 327.097656 234.363281 L 320.417969 234.363281 C 320.085938 234.363281 319.816406 234.097656 319.816406 233.761719 C 319.816406 233.425781 320.085938 233.160156 320.417969 233.160156 L 327.097656 233.160156 C 327.433594 233.160156 327.699219 233.425781 327.699219 233.761719 C 327.699219 234.097656 327.425781 234.363281 327.097656 234.363281 Z M 327.691406 235.800781 C 327.691406 235.46875 327.425781 235.199219 327.089844 235.199219 L 320.417969 235.199219 C 320.085938 235.199219 319.816406 235.46875 319.816406 235.800781 C 319.816406 236.136719 320.085938 236.402344 320.417969 236.402344 L 327.097656 236.402344 C 327.425781 236.402344 327.691406 236.136719 327.691406 235.800781 Z M 327.691406 237.851562 C 327.691406 237.515625 327.425781 237.25 327.089844 237.25 L 320.417969 237.25 C 320.085938 237.25 319.816406 237.515625 319.816406 237.851562 C 319.816406 238.183594 320.085938 238.453125 320.417969 238.453125 L 327.097656 238.453125 C 327.425781 238.453125 327.691406 238.175781 327.691406 237.851562 Z M 326.628906 26.355469 L 323.664062 23.386719 L 320.695312 26.355469 Z M 320.695312 348.410156 L 323.664062 351.378906 L 326.628906 348.410156 Z M 320.695312 348.410156 " fill-opacity="1" fill-rule="nonzero"/></svg>