<svg width="123" height="33" viewBox="0 0 123 33" fill="none" xmlns="http://www.w3.org/2000/svg">
<rect width="110" height="33" rx="5" fill="#215BFF"/>
<path d="M35.232 21V10.568H37.584V14.584H41.184V10.568H43.552V21H41.184V16.648H37.584V21H35.232ZM49.2293 21.192C48.5573 21.192 47.9279 21.032 47.3413 20.712C46.7546 20.3813 46.2746 19.9067 45.9013 19.288C45.5386 18.6587 45.3573 17.9067 45.3573 17.032C45.3573 16.1573 45.5386 15.4107 45.9013 14.792C46.2746 14.1627 46.7546 13.688 47.3413 13.368C47.9279 13.0373 48.5573 12.872 49.2293 12.872C49.8906 12.872 50.5146 13.0373 51.1013 13.368C51.6879 13.688 52.1626 14.1627 52.5253 14.792C52.8986 15.4107 53.0853 16.1573 53.0853 17.032C53.0853 17.9067 52.8986 18.6587 52.5253 19.288C52.1626 19.9067 51.6879 20.3813 51.1013 20.712C50.5146 21.032 49.8906 21.192 49.2293 21.192ZM49.2293 19.288C49.5493 19.288 49.8159 19.1973 50.0293 19.016C50.2533 18.8347 50.4186 18.5733 50.5253 18.232C50.6319 17.8907 50.6853 17.4907 50.6853 17.032C50.6853 16.5733 50.6319 16.1733 50.5253 15.832C50.4186 15.4907 50.2533 15.2293 50.0293 15.048C49.8159 14.8667 49.5493 14.776 49.2293 14.776C48.8986 14.776 48.6266 14.8667 48.4133 15.048C48.1999 15.2293 48.0399 15.4907 47.9333 15.832C47.8266 16.1733 47.7733 16.5733 47.7733 17.032C47.7733 17.4907 47.8266 17.8907 47.9333 18.232C48.0399 18.5733 48.1999 18.8347 48.4133 19.016C48.6266 19.1973 48.8986 19.288 49.2293 19.288ZM54.6963 21V13.064H56.6163L56.7763 14.088H56.8403C57.1603 13.7573 57.5069 13.4747 57.8802 13.24C58.2643 12.9947 58.7176 12.872 59.2403 12.872C59.8056 12.872 60.2643 12.9893 60.6163 13.224C60.9683 13.448 61.2403 13.7733 61.4323 14.2C61.7843 13.8373 62.1576 13.528 62.5523 13.272C62.9469 13.0053 63.4056 12.872 63.9283 12.872C64.7923 12.872 65.4216 13.16 65.8163 13.736C66.2109 14.3013 66.4083 15.08 66.4083 16.072V21H64.0563V16.376C64.0563 15.8 63.9763 15.4053 63.8163 15.192C63.6669 14.9787 63.4216 14.872 63.0803 14.872C62.8776 14.872 62.6643 14.936 62.4403 15.064C62.2163 15.1813 61.9763 15.3733 61.7203 15.64V21H59.3683V16.376C59.3683 15.8 59.2883 15.4053 59.1283 15.192C58.9789 14.9787 58.7336 14.872 58.3923 14.872C57.9869 14.872 57.5389 15.128 57.0483 15.64V21H54.6963ZM71.967 21.192C71.2097 21.192 70.527 21.0267 69.919 20.696C69.311 20.3653 68.831 19.8907 68.479 19.272C68.127 18.6533 67.951 17.9067 67.951 17.032C67.951 16.168 68.127 15.4267 68.479 14.808C68.8417 14.1893 69.311 13.7147 69.887 13.384C70.463 13.0427 71.0657 12.872 71.695 12.872C72.4523 12.872 73.0817 13.0427 73.583 13.384C74.0843 13.7147 74.4577 14.168 74.703 14.744C74.9483 15.32 75.071 15.9653 75.071 16.68C75.071 16.8827 75.0603 17.0853 75.039 17.288C75.0177 17.48 74.9963 17.6347 74.975 17.752H69.775L69.743 16.12H73.055C73.055 15.704 72.9537 15.3627 72.751 15.096C72.5483 14.8187 72.2123 14.68 71.743 14.68C71.487 14.68 71.2363 14.7493 70.991 14.888C70.7457 15.0267 70.543 15.2667 70.383 15.608C70.223 15.9493 70.1483 16.424 70.159 17.032C70.1697 17.6293 70.2763 18.0987 70.479 18.44C70.6923 18.7813 70.959 19.0267 71.279 19.176C71.599 19.3147 71.935 19.384 72.287 19.384C72.5963 19.384 72.8897 19.3413 73.167 19.256C73.455 19.16 73.7377 19.032 74.015 18.872L74.783 20.312C74.3883 20.5893 73.9403 20.808 73.439 20.968C72.9377 21.1173 72.447 21.192 71.967 21.192Z" fill="white"/>
<path d="M123 17L109.5 9.20577V24.7942L123 17Z" fill="#215BFF"/>
</svg>
