<svg width="333" height="350" viewBox="0 0 333 350" fill="none" xmlns="http://www.w3.org/2000/svg">
<g filter="url(#filter0_d_164_28)">
<rect x="35" y="19" width="263" height="280" rx="36" fill="#FFB300"/>
<rect x="36.5" y="20.5" width="260" height="277" rx="34.5" stroke="black" stroke-width="3"/>
</g>
<path d="M187.808 75V54.136H193.696C195.829 54.136 197.674 54.4987 199.232 55.224C200.81 55.9493 202.026 57.08 202.88 58.616C203.733 60.1307 204.16 62.0827 204.16 64.472C204.16 66.8613 203.733 68.8347 202.88 70.392C202.026 71.9493 200.832 73.112 199.296 73.88C197.781 74.6267 196.01 75 193.984 75H187.808ZM192.512 71.192H193.408C194.602 71.192 195.637 70.9787 196.512 70.552C197.408 70.1253 198.101 69.4213 198.592 68.44C199.082 67.4587 199.328 66.136 199.328 64.472C199.328 62.808 199.082 61.5067 198.592 60.568C198.101 59.608 197.408 58.936 196.512 58.552C195.637 58.1467 194.602 57.944 193.408 57.944H192.512V71.192ZM189.198 121V100.136H202.254V104.104H193.902V108.296H201.006V112.232H193.902V117.032H202.574V121H189.198ZM192.561 167L186.385 146.136H191.377L193.745 155.864C193.937 156.611 194.119 157.357 194.289 158.104C194.481 158.851 194.663 159.587 194.833 160.312C195.025 161.037 195.228 161.784 195.441 162.552H195.569C195.761 161.784 195.943 161.037 196.113 160.312C196.284 159.587 196.465 158.851 196.657 158.104C196.849 157.357 197.041 156.611 197.233 155.864L199.825 146.136H204.625L198.225 167H192.561ZM195.441 213.384C194.055 213.384 192.689 213.139 191.345 212.648C190.001 212.136 188.796 211.368 187.729 210.344L190.225 207.272C190.972 207.912 191.815 208.413 192.753 208.776C193.713 209.139 194.652 209.32 195.569 209.32C196.551 209.32 197.276 209.139 197.745 208.776C198.236 208.413 198.481 207.923 198.481 207.304C198.481 206.856 198.353 206.504 198.097 206.248C197.863 205.971 197.521 205.725 197.073 205.512C196.625 205.299 196.092 205.064 195.473 204.808L192.753 203.688C192.049 203.368 191.367 202.963 190.705 202.472C190.065 201.96 189.543 201.341 189.137 200.616C188.753 199.869 188.561 198.984 188.561 197.96C188.561 196.808 188.871 195.773 189.489 194.856C190.129 193.917 191.004 193.171 192.113 192.616C193.244 192.04 194.535 191.752 195.985 191.752C197.244 191.752 198.46 191.976 199.633 192.424C200.807 192.872 201.831 193.523 202.705 194.376L200.209 197.416C199.527 196.904 198.823 196.509 198.097 196.232C197.393 195.955 196.689 195.816 195.985 195.816C195.175 195.816 194.524 195.987 194.033 196.328C193.564 196.648 193.329 197.107 193.329 197.704C193.329 198.109 193.468 198.461 193.745 198.76C194.023 199.037 194.407 199.283 194.897 199.496C195.388 199.688 195.921 199.912 196.497 200.168L199.185 201.256C200.039 201.597 200.764 202.024 201.361 202.536C201.98 203.048 202.46 203.667 202.801 204.392C203.143 205.096 203.313 205.939 203.313 206.92C203.313 208.072 203.004 209.139 202.385 210.12C201.767 211.101 200.871 211.891 199.697 212.488C198.524 213.085 197.105 213.384 195.441 213.384Z" fill="black"/>
<path d="M142.099 50H83L99.5657 73.8389V234.864L83 265H224.928L250 234.864H142.099V50Z" fill="black" stroke="black" stroke-width="10"/>
<defs>
<filter id="filter0_d_164_28" x="0" y="0" width="333" height="350" filterUnits="userSpaceOnUse" color-interpolation-filters="sRGB">
<feFlood flood-opacity="0" result="BackgroundImageFix"/>
<feColorMatrix in="SourceAlpha" type="matrix" values="0 0 0 0 0 0 0 0 0 0 0 0 0 0 0 0 0 0 127 0" result="hardAlpha"/>
<feMorphology radius="12" operator="erode" in="SourceAlpha" result="effect1_dropShadow_164_28"/>
<feOffset dy="16"/>
<feGaussianBlur stdDeviation="23.5"/>
<feComposite in2="hardAlpha" operator="out"/>
<feColorMatrix type="matrix" values="0 0 0 0 0 0 0 0 0 0 0 0 0 0 0 0 0 0 0.5 0"/>
<feBlend mode="normal" in2="BackgroundImageFix" result="effect1_dropShadow_164_28"/>
<feBlend mode="normal" in="SourceGraphic" in2="effect1_dropShadow_164_28" result="shape"/>
</filter>
</defs>
</svg>
