<svg width="168" height="174" viewBox="0 0 168 174" fill="none" xmlns="http://www.w3.org/2000/svg">
<g filter="url(#filter0_d_164_28)">
<rect x="35" y="19" width="98" height="104" rx="8" fill="#215BFF"/>
</g>
<path d="M91.2003 42.5428V32.7628H93.9603C94.9603 32.7628 95.8253 32.9328 96.5553 33.2728C97.2953 33.6128 97.8653 34.1428 98.2653 34.8628C98.6653 35.5728 98.8653 36.4878 98.8653 37.6078C98.8653 38.7278 98.6653 39.6528 98.2653 40.3828C97.8653 41.1128 97.3053 41.6578 96.5853 42.0178C95.8753 42.3678 95.0453 42.5428 94.0953 42.5428H91.2003ZM93.4053 40.7578H93.8253C94.3853 40.7578 94.8703 40.6578 95.2803 40.4578C95.7003 40.2578 96.0253 39.9278 96.2553 39.4678C96.4853 39.0078 96.6003 38.3878 96.6003 37.6078C96.6003 36.8278 96.4853 36.2178 96.2553 35.7778C96.0253 35.3278 95.7003 35.0128 95.2803 34.8328C94.8703 34.6428 94.3853 34.5478 93.8253 34.5478H93.4053V40.7578ZM91.8522 63.5428V53.7628H97.9722V55.6228H94.0572V57.5878H97.3872V59.4328H94.0572V61.6828H98.1222V63.5428H91.8522ZM93.4286 84.5428L90.5336 74.7628H92.8736L93.9836 79.3228C94.0736 79.6728 94.1586 80.0228 94.2386 80.3728C94.3286 80.7228 94.4136 81.0678 94.4936 81.4078C94.5836 81.7478 94.6786 82.0978 94.7786 82.4578H94.8386C94.9286 82.0978 95.0136 81.7478 95.0936 81.4078C95.1736 81.0678 95.2586 80.7228 95.3486 80.3728C95.4386 80.0228 95.5286 79.6728 95.6186 79.3228L96.8336 74.7628H99.0836L96.0836 84.5428H93.4286ZM94.7786 105.723C94.1286 105.723 93.4886 105.608 92.8586 105.378C92.2286 105.138 91.6636 104.778 91.1636 104.298L92.3336 102.858C92.6836 103.158 93.0786 103.393 93.5186 103.563C93.9686 103.733 94.4086 103.818 94.8386 103.818C95.2986 103.818 95.6386 103.733 95.8586 103.563C96.0886 103.393 96.2036 103.163 96.2036 102.873C96.2036 102.663 96.1436 102.498 96.0236 102.378C95.9136 102.248 95.7536 102.133 95.5436 102.033C95.3336 101.933 95.0836 101.823 94.7936 101.703L93.5186 101.178C93.1886 101.028 92.8686 100.838 92.5586 100.608C92.2586 100.368 92.0136 100.078 91.8236 99.7378C91.6436 99.3878 91.5536 98.9728 91.5536 98.4928C91.5536 97.9528 91.6986 97.4678 91.9886 97.0378C92.2886 96.5978 92.6986 96.2478 93.2186 95.9878C93.7486 95.7178 94.3536 95.5828 95.0336 95.5828C95.6236 95.5828 96.1936 95.6878 96.7436 95.8978C97.2936 96.1078 97.7736 96.4128 98.1836 96.8128L97.0136 98.2378C96.6936 97.9978 96.3636 97.8128 96.0236 97.6828C95.6936 97.5528 95.3636 97.4878 95.0336 97.4878C94.6536 97.4878 94.3486 97.5678 94.1186 97.7278C93.8986 97.8778 93.7886 98.0928 93.7886 98.3728C93.7886 98.5628 93.8536 98.7278 93.9836 98.8678C94.1136 98.9978 94.2936 99.1128 94.5236 99.2128C94.7536 99.3028 95.0036 99.4078 95.2736 99.5278L96.5336 100.038C96.9336 100.198 97.2736 100.398 97.5536 100.638C97.8436 100.878 98.0686 101.168 98.2286 101.508C98.3886 101.838 98.4686 102.233 98.4686 102.693C98.4686 103.233 98.3236 103.733 98.0336 104.193C97.7436 104.653 97.3236 105.023 96.7736 105.303C96.2236 105.583 95.5586 105.723 94.7786 105.723Z" fill="white"/>
<path d="M74.9077 30.5143H52.886L59.0588 39.3687V99.1781L52.886 110.371H105.772L115.114 99.1781H74.9077V30.5143Z" fill="white" stroke="white" stroke-width="10"/>
<defs>
<filter id="filter0_d_164_28" x="0" y="0" width="168" height="174" filterUnits="userSpaceOnUse" color-interpolation-filters="sRGB">
<feFlood flood-opacity="0" result="BackgroundImageFix"/>
<feColorMatrix in="SourceAlpha" type="matrix" values="0 0 0 0 0 0 0 0 0 0 0 0 0 0 0 0 0 0 127 0" result="hardAlpha"/>
<feMorphology radius="12" operator="erode" in="SourceAlpha" result="effect1_dropShadow_164_28"/>
<feOffset dy="16"/>
<feGaussianBlur stdDeviation="23.5"/>
<feComposite in2="hardAlpha" operator="out"/>
<feColorMatrix type="matrix" values="0 0 0 0 0 0 0 0 0 0 0 0 0 0 0 0 0 0 0.5 0"/>
<feBlend mode="normal" in2="BackgroundImageFix" result="effect1_dropShadow_164_28"/>
<feBlend mode="normal" in="SourceGraphic" in2="effect1_dropShadow_164_28" result="shape"/>
</filter>
</defs>
</svg>
